<svg xmlns="http://www.w3.org/2000/svg" width="378" height="667" viewBox="0 0 378 667">
    <defs>
        <linearGradient id="w5tjnmzlla" x1="-23.733%" x2="236.397%" y1="34.781%" y2="70.54%">
            <stop offset="2%" stop-color="#8E6A46"/>
            <stop offset="40%" stop-color="#F1D07C"/>
            <stop offset="43%" stop-color="#D9B76E"/>
            <stop offset="49%" stop-color="#B9965C"/>
            <stop offset="54%" stop-color="#A37E50"/>
            <stop offset="59%" stop-color="#957048"/>
            <stop offset="63%" stop-color="#906B45"/>
            <stop offset="66%" stop-color="#987449"/>
            <stop offset="70%" stop-color="#AD8B54"/>
            <stop offset="76%" stop-color="#CFB165"/>
            <stop offset="81%" stop-color="#F1D777"/>
            <stop offset="83%" stop-color="#D8BB6B"/>
            <stop offset="86%" stop-color="#BD9E5D"/>
            <stop offset="88%" stop-color="#A88753"/>
            <stop offset="91%" stop-color="#9A774C"/>
            <stop offset="95%" stop-color="#916D47"/>
            <stop offset="99%" stop-color="#8E6A46"/>
        </linearGradient>
    </defs>
    <g fill="none" fill-rule="evenodd">
        <g>
            <g>
                <g>
                    <path fill="#FCC517" d="M1 0L376 0 376 585 1 585z" transform="translate(1 -16) translate(-1 16) translate(.028)"/>
                    <path fill="#DB0812" d="M.378 0c8.43 113.016 22.445 180.218 42.046 201.607 13.266 14.475 16.411 50.609 30.849 65.477 19.117 19.687 49.332 17.74 63.624 32.516 16.16 16.706 56.305-21.888 144.602-21.67 58.865.144 90.356 5 94.473 14.57L377 413.003V667H0L.378 0z" transform="translate(1 -16) translate(-1 16) translate(.028)"/>
                    <path fill="url(#w5tjnmzlla)" fill-rule="nonzero" d="M.93 145.892c9.421 67.01 40.606 115.88 93.554 146.608 112.052 65.03 174.548-46.94 281.06 15.376l.483.283L376 292.5c0-1.996-.008-3.496-.025-4.5-102.019-69.515-205.52 41.316-281.491-17.734C43.836 230.899 12.588 140.81.74 0L.632 143.556c.13 1.068.23 1.846.298 2.336z" transform="translate(1 -16) translate(-1 16) translate(.028)"/>
                </g>
            </g>
        </g>
    </g>
</svg>
