<svg xmlns="http://www.w3.org/2000/svg" width="1440" height="13" viewBox="0 0 1440 13">
    <g fill="none" fill-rule="evenodd">
        <g fill="#FFF1BE">
            <g>
                <path d="M20 0l20 13H0L20 0zm160 0l20 13h-40l20-13zm-80 0l20 13H80l20-13zm160 0l20 13h-40l20-13zM60 0l20 13H40L60 0zm160 0l20 13h-40l20-13zm-80 0l20 13h-40l20-13zm160 0l20 13h-40l20-13zm360 0l20 13h-40l20-13zm160 0l20 13h-40l20-13zm-80 0l20 13h-40l20-13zm160 0l20 13h-40l20-13zM700 0l20 13h-40l20-13zm160 0l20 13h-40l20-13zm-80 0l20 13h-40l20-13zm160 0l20 13h-40l20-13zM340 0l20 13h-40l20-13zm160 0l20 13h-40l20-13zm-80 0l20 13h-40l20-13zm160 0l20 13h-40l20-13zM380 0l20 13h-40l20-13zm160 0l20 13h-40l20-13zm-80 0l20 13h-40l20-13zm160 0l20 13h-40l20-13zm360 0l20 13h-40l20-13zm160 0l20 13h-40l20-13zm200 0l20 13h-40l20-13zm-280 0l20 13h-40l20-13zm160 0l20 13h-40l20-13zm200 0l20 13h-40l20-13zm-400 0l20 13h-40l20-13zm160 0l20 13h-40l20-13zm200 0l20 13h-40l20-13zm-280 0l20 13h-40l20-13zm200 0l20 13h-40l20-13zm-40 0l20 13h-40l20-13z" transform="translate(0 -1567) translate(0 1567) matrix(1 0 0 -1 0 13)"/>
            </g>
        </g>
    </g>
</svg>
