<svg xmlns="http://www.w3.org/2000/svg" width="13" height="15" viewBox="0 0 13 15">
    <g fill="none" fill-rule="evenodd">
        <g fill="#FFF" fill-rule="nonzero">
            <g>
                <g>
                    <g>
                        <g>
                            <path d="M11.097 3.352C9.969 2.222 8.5 1.56 6.924 1.458v-.61h.622c.234 0 .424-.19.424-.424C7.97.19 7.78 0 7.546 0H5.454C5.22 0 5.03.19 5.03.424c0 .234.19.424.424.424h.622v.61c-1.081.07-2.111.403-3.015.97l-.403-.403c-.196-.197-.457-.305-.734-.305-.278 0-.538.109-.734.305l-.613.614c-.403.404-.403 1.06 0 1.465l.406.406C.343 5.534 0 6.72 0 7.957c0 1.74.676 3.375 1.903 4.605 1.228 1.23 2.86 1.908 4.597 1.908 1.736 0 3.369-.678 4.597-1.908C12.324 11.332 13 9.696 13 7.957c0-1.74-.676-3.375-1.903-4.605zm-9.92-.114l.613-.614c.048-.049.104-.056.134-.056.03 0 .085.007.134.056l.307.308c-.16.132-.313.272-.461.42-.148.148-.288.302-.419.461l-.308-.308c-.073-.074-.073-.194 0-.267zM6.5 13.622c-3.117 0-5.652-2.541-5.652-5.665S3.383 2.292 6.5 2.292s5.652 2.541 5.652 5.665-2.535 5.665-5.652 5.665z" transform="translate(-317 -3684) translate(0 2918) translate(138 304) translate(179 459) translate(0 3)"/>
                            <path d="M6.5 3.014c-2.607 0-4.727 2.164-4.727 4.824 0 2.66 2.12 4.823 4.727 4.823s4.727-2.164 4.727-4.823c0-2.66-2.12-4.824-4.727-4.824zm.412 8.785v-.49c0-.233-.184-.42-.412-.42-.228 0-.412.187-.412.42v.49c-1.824-.196-3.277-1.68-3.47-3.541h.474c.228 0 .412-.188.412-.42 0-.232-.184-.42-.412-.42h-.473c.192-1.862 1.645-3.345 3.469-3.542v.491c0 .232.184.42.412.42.228 0 .412-.188.412-.42v-.49c1.824.196 3.277 1.68 3.47 3.54h-.474c-.228 0-.412.189-.412.42 0 .233.184.42.412.42h.473c-.192 1.862-1.645 3.346-3.469 3.542z" transform="translate(-317 -3684) translate(0 2918) translate(138 304) translate(179 459) translate(0 3)"/>
                            <path d="M7.28 7.585h-.567V5.854c0-.236-.18-.428-.402-.428-.222 0-.402.192-.402.428v2.159c0 .236.18.428.402.428h.969c.222 0 .402-.192.402-.428 0-.237-.18-.428-.402-.428z" transform="translate(-317 -3684) translate(0 2918) translate(138 304) translate(179 459) translate(0 3)"/>
                        </g>
                    </g>
                </g>
            </g>
        </g>
    </g>
</svg>
