<svg xmlns="http://www.w3.org/2000/svg" width="67" height="68" viewBox="0 0 67 68">
    <g fill="none" fill-rule="evenodd">
        <g>
            <g>
                <g>
                    <g>
                        <g transform="translate(-600 -1996) translate(0 1567) translate(140 255) translate(413 174) translate(47)">
                            <circle cx="33.5" cy="33.926" r="33" stroke="#FFF1BE"/>
                            <circle cx="33.5" cy="33.926" r="27.5" fill="#FFF1BE" opacity=".8"/>
                            <path fill="#DB0812" fill-rule="nonzero" d="M54.894 31.552c-.494-5.008-2.713-9.729-6.249-13.293-3.021-3.046-6.72-5.004-10.611-5.874V9.633c1.59-.399 2.77-1.85 2.77-3.573 0-2.03-1.638-3.682-3.652-3.682h-7.734c-2.014 0-3.653 1.651-3.653 3.682 0 1.724 1.182 3.174 2.771 3.573v2.76c-3.88.873-7.566 2.828-10.579 5.866-.659.665-1.267 1.362-1.823 2.087-.027-.002-.054-.004-.082-.004H8.397c-.593 0-1.074.484-1.074 1.083 0 .598.48 1.082 1.074 1.082h6.275c-.788 1.33-1.423 2.726-1.906 4.163H1.074C.481 26.67 0 27.155 0 27.753s.481 1.083 1.074 1.083H12.16c-.31 1.37-.488 2.765-.534 4.163h-4.75c-.593 0-1.074.485-1.074 1.083s.48 1.083 1.074 1.083h4.785c.09 1.402.314 2.796.67 4.162H5.371c-.593 0-1.074.485-1.074 1.083 0 .599.481 1.083 1.074 1.083h7.645c1.054 2.81 2.7 5.445 4.941 7.704 3.54 3.568 8.227 5.806 13.2 6.3.709.072 1.42.107 2.128.107 4.192 0 8.33-1.224 11.843-3.529.497-.326.637-.997.314-1.499-.324-.5-.99-.642-1.487-.316-7.687 5.046-17.982 3.955-24.478-2.595-7.623-7.685-7.623-20.19 0-27.875 7.623-7.685 20.026-7.685 27.649 0 6.488 6.542 7.577 16.912 2.587 24.657-.323.502-.181 1.173.316 1.498.498.326 1.163.184 1.486-.318 2.666-4.139 3.866-9.137 3.379-14.075zM27.914 6.06c0-.836.675-1.516 1.504-1.516h7.734c.83 0 1.504.68 1.504 1.516s-.674 1.516-1.504 1.516h-7.734c-.83 0-1.504-.68-1.504-1.516zm2.77 5.96V9.742h5.201v2.274c-1.727-.207-3.474-.206-5.2.004z"/>
                            <path fill="#DB0812" fill-rule="nonzero" d="M47.903 47.62c-.234 0-.462.095-.627.26-.166.165-.26.393-.26.627 0 .233.094.462.26.627.165.166.393.26.627.26.234 0 .462-.094.627-.26.165-.165.26-.394.26-.627 0-.234-.095-.462-.26-.627-.165-.165-.394-.26-.627-.26zM33.266 17.458c-9.049 0-16.411 7.362-16.411 16.412 0 9.049 7.362 16.41 16.411 16.41 9.05 0 16.411-7.361 16.411-16.41 0-9.05-7.362-16.412-16.41-16.412zm0 30.707c-7.882 0-14.295-6.413-14.295-14.295 0-7.883 6.413-14.296 14.295-14.296 7.883 0 14.296 6.413 14.296 14.296 0 7.882-6.413 14.295-14.296 14.295z"/>
                            <path fill="#DB0812" fill-rule="nonzero" d="M39.876 25.769l-5.274 5.521c-.441-.228-.938-.357-1.462-.357-.525 0-1.02.13-1.462.357l-2.36-2.47c-.416-.436-1.09-.436-1.506 0-.416.435-.416 1.14 0 1.576l2.36 2.471c-.218.462-.341.981-.341 1.53 0 1.91 1.484 3.465 3.309 3.465 1.825 0 3.309-1.555 3.309-3.465 0-.549-.123-1.068-.341-1.53l5.119-5.36.155-.162c.416-.435.416-1.14 0-1.576-.416-.436-1.09-.436-1.506 0zm-6.736 9.863c-.65 0-1.18-.554-1.18-1.235 0-.68.53-1.234 1.18-1.234.65 0 1.18.554 1.18 1.234 0 .681-.53 1.235-1.18 1.235zM45.22 33.426h-.843c-.502 0-.91.397-.91.887s.408.887.91.887h.843c.502 0 .909-.397.909-.887s-.407-.887-.91-.887zM23.042 33.426H22.2c-.502 0-.91.397-.91.887s.408.887.91.887h.842c.502 0 .91-.397.91-.887s-.408-.887-.91-.887zM32.823 24.555c.49 0 .887-.407.887-.91v-.842c0-.502-.398-.91-.887-.91-.49 0-.888.408-.888.91v.843c0 .502.398.91.888.91zM32.823 44.071c-.49 0-.888.407-.888.91v.842c0 .502.398.91.888.91s.887-.408.887-.91v-.842c0-.503-.398-.91-.887-.91zM.887 39.636c-.233 0-.462.095-.627.26-.165.165-.26.394-.26.627 0 .234.095.462.26.627.165.165.394.26.627.26.233 0 .462-.095.627-.26.165-.165.26-.394.26-.627 0-.233-.095-.462-.26-.627-.165-.165-.394-.26-.627-.26z"/>
                        </g>
                    </g>
                </g>
            </g>
        </g>
    </g>
</svg>
