<svg xmlns="http://www.w3.org/2000/svg" width="15" height="11" viewBox="0 0 15 11">
    <g fill="none" fill-rule="evenodd">
        <g fill="#FFF" fill-rule="nonzero">
            <g>
                <g>
                    <g>
                        <g>
                            <path d="M13.682 10.723H1.318C.591 10.723 0 10.147 0 9.439v-.114c0-.707.591-1.283 1.318-1.283h12.364c.727 0 1.318.576 1.318 1.283v.114c0 .708-.591 1.284-1.318 1.284zM1.318 8.898c-.242 0-.44.191-.44.427v.114c0 .236.198.428.44.428h12.364c.242 0 .44-.192.44-.428v-.114c0-.236-.198-.427-.44-.427H1.318zM9.092.67H5.226c-.25 0-.453-.15-.453-.335 0-.185.203-.335.453-.335h3.866c.25 0 .453.15.453.335 0 .185-.202.335-.453.335z" transform="translate(-253 -3686) translate(0 2918) translate(138 304) translate(115 459) translate(0 5)"/>
                            <path d="M8.428 2.68H6.572c-.24 0-.436-.19-.436-.427V.428c0-.236.195-.428.436-.428h1.856c.24 0 .436.192.436.428v1.825c0 .236-.195.428-.436.428zm-1.421-.855h.986v-.97h-.986v.97z" transform="translate(-253 -3686) translate(0 2918) translate(138 304) translate(115 459) translate(0 5)"/>
                            <path d="M13.2 8.712H1.119c-.241 0-.436-.189-.436-.422 0-1.677.674-3.254 1.897-4.44 1.223-1.186 2.85-1.84 4.58-1.84s3.357.654 4.58 1.84c1.224 1.186 1.897 2.763 1.897 4.44 0 .233-.195.422-.435.422zM1.57 7.867h11.178c-.223-2.8-2.644-5.012-5.589-5.012-2.944 0-5.366 2.212-5.589 5.012z" transform="translate(-253 -3686) translate(0 2918) translate(138 304) translate(115 459) translate(0 5)"/>
                        </g>
                    </g>
                </g>
            </g>
        </g>
    </g>
</svg>
