<svg xmlns="http://www.w3.org/2000/svg" width="70" height="67" viewBox="0 0 70 67">
    <g fill="none" fill-rule="evenodd">
        <g>
            <g>
                <g>
                    <g>
                        <g transform="translate(-200 -1995) translate(0 1567) translate(140 255) translate(0 173) translate(60.012)">
                            <circle cx="33.488" cy="33.5" r="33" stroke="#FFF1BE"/>
                            <circle cx="33.488" cy="33.5" r="27.5" fill="#FFF1BE" fill-opacity=".8"/>
                            <path fill="#DB0812" fill-rule="nonzero" d="M65.723 17.854c1.49-2.826.758-6.71.724-6.886-.118-.603-.696-1.001-1.3-.896-.19.033-4.65.837-6.607 3.676-.367.534-.6 1.133-.689 1.757-1.216-1.446-2.567-2.368-2.66-2.431-.51-.343-1.2-.216-1.554.286-.078.11-1.51 2.17-2.003 4.601-.49-.24-1.095-.096-1.418.363-.078.11-1.51 2.17-2.002 4.602-.49-.24-1.095-.097-1.419.363-.077.11-1.509 2.17-2.002 4.601-.49-.24-1.095-.096-1.418.363-.078.11-1.51 2.17-2.003 4.601-.49-.24-1.095-.096-1.418.363-.11.157-2.695 3.877-2.07 7.269.113.612.701 1.017 1.314.904.613-.113 1.018-.7.906-1.313-.276-1.494.444-3.33 1.083-4.538 1.027.898 2.35 2.352 2.628 3.854.1.54-.048 1.064-.375 1.518-8.213 12.878-12.496 19.73-12.85 20.556-.337-1.732-3.656-7.79-9.957-18.174-.115-.24-.464-.95-.667-1.428-.228-.54-.384-1.093-.189-1.645.507-1.432 2.046-2.663 3.203-3.393.442 1.291.864 3.211.355 4.65-.208.588.1 1.232.688 1.44.588.208 1.232-.1 1.44-.687 1.15-3.251-.82-7.331-.904-7.503-.247-.504-.821-.742-1.343-.581-.106-2.479-1.198-4.74-1.256-4.859-.247-.504-.821-.741-1.343-.58-.106-2.48-1.197-4.74-1.256-4.859-.247-.504-.821-.741-1.343-.58-.106-2.48-1.198-4.74-1.256-4.86-.247-.503-.821-.74-1.344-.58-.105-2.479-1.197-4.74-1.255-4.858-.27-.552-.932-.786-1.49-.526-.094.043-1.339.632-2.643 1.679-1.708-2.7-5.441-4.004-5.61-4.062-.581-.199-1.215.104-1.426.68-.066.18-1.593 4.445-.106 7.557.285.596.696 1.09 1.184 1.472-1.862.332-3.338 1.044-3.44 1.094-.551.27-.786.932-.526 1.488.057.123 1.129 2.39 2.991 4.03-.453.305-.63.9-.392 1.41.057.122 1.129 2.389 2.991 4.029-.453.305-.63.9-.392 1.41.057.122 1.129 2.39 2.991 4.03-.453.304-.63.9-.392 1.409.057.122 1.129 2.39 2.992 4.03-.454.304-.63.9-.393 1.41.08.173 2.018 4.268 5.27 5.417.456.161.92.237 1.378.237 1.286 0 2.512-.603 3.296-1.627 2.122 2.107 3.794 4.44 5.017 7 1.834 3.838 3.634 7.109 3.653 11.363l2.872-.5c0-3.696-1.398-1.5 1.896-5 2.196-2.333 5.784-8.288 10.763-17.864.307.57.747 1.065 1.296 1.443.7.482 1.51.732 2.342.732.252 0 .507-.023.76-.07 3.393-.625 5.949-4.365 6.056-4.524.313-.466.233-1.082-.167-1.454 2.097-1.328 3.513-3.4 3.587-3.51.314-.466.234-1.082-.166-1.454 2.097-1.328 3.513-3.4 3.587-3.51.314-.466.233-1.082-.167-1.455 2.097-1.327 3.513-3.4 3.587-3.51.314-.466.234-1.082-.166-1.454 2.097-1.328 3.513-3.4 3.587-3.51.344-.51.217-1.2-.286-1.553-.085-.06-1.216-.845-2.774-1.453zm-47.945 8.097c.369 1.067.787 2.72.495 4.147-.641.472-1.328 1.06-1.923 1.758-.21 0-.418-.036-.62-.107-.476-.168-.857-.511-1.075-.965-.217-.455-.244-.967-.076-1.442.506-1.43 2.042-2.661 3.2-3.39zm-2.599-5.44c.369 1.068.787 2.722.494 4.148-.64.472-1.327 1.06-1.922 1.757-.21 0-.418-.035-.621-.107-.981-.346-1.497-1.426-1.15-2.406.506-1.431 2.042-2.661 3.199-3.391zm-5.798-2.047c.506-1.431 2.042-2.662 3.2-3.391.368 1.066.786 2.72.494 4.147-.641.472-1.328 1.06-1.924 1.757-.21 0-.417-.035-.62-.107-.475-.168-.857-.51-1.074-.965-.217-.455-.244-.966-.076-1.441zm-4.592-5.802c1.216.596 2.907 1.739 3.577 3.102-.465.582-.86 1.233-1.113 1.948-.074.207-.13.418-.169.63-.852.213-1.766-.195-2.16-1.017-.654-1.37-.437-3.33-.135-4.663zm2.598 9.425c.98.347 1.496 1.427 1.15 2.407-.072.203-.176.386-.307.55-.917.025-1.807.189-2.577.39-1.294-.668-2.32-2.035-2.917-2.992 1.291-.442 3.21-.863 4.65-.355zm-2.052 5.794c1.291-.442 3.21-.863 4.65-.354.982.346 1.497 1.426 1.15 2.406-.071.203-.175.387-.306.55-.917.025-1.807.19-2.577.39-1.294-.668-2.32-2.035-2.917-2.992zm7.25 5.085c.98.347 1.497 1.426 1.15 2.407-.072.202-.176.386-.307.55-.917.024-1.807.188-2.577.39-1.294-.668-2.319-2.036-2.917-2.993 1.292-.442 3.211-.863 4.65-.354zm2.599 5.44c.475.167.856.51 1.073.964.218.455.245.967.077 1.442-.072.203-.176.386-.307.55-.917.025-1.807.188-2.577.39-1.294-.668-2.319-2.036-2.917-2.993 1.292-.442 3.211-.862 4.65-.354zm3.749 7.845c-.347.98-1.427 1.496-2.408 1.15-1.433-.507-2.665-2.045-3.395-3.202 1.292-.442 3.213-.863 4.653-.354.98.346 1.497 1.426 1.15 2.406zm-.605-9.063c-.981-.347-1.497-1.426-1.15-2.407.506-1.432 2.045-2.663 3.202-3.392.39 1.14.77 2.787.491 4.149-.64.471-1.327 1.06-1.922 1.757-.21 0-.418-.035-.621-.107zm46.045-24.602c.09 1.365-.043 3.394-.904 4.644-.736-.112-1.498-.13-2.244.008-.216.04-.427.097-.631.168-.256-.264-.428-.597-.496-.966-.092-.495.015-.997.301-1.412.862-1.25 2.667-2.039 3.974-2.442zm-6.876 6.95c.189 1.023-.49 2.008-1.513 2.197-.212.038-.423.04-.63.008-.479-.782-1.065-1.471-1.624-2.038-.065-1.453.608-3.022 1.14-4.018 1.028.903 2.352 2.359 2.627 3.851zm-3.42 4.964c.091.496-.016.997-.302 1.412-.286.415-.716.694-1.212.785-.21.039-.421.04-.628.009-.102-.167-.208-.333-.324-.498-.405-.579-.862-1.098-1.301-1.543-.065-1.452.608-3.02 1.14-4.015 1.028.902 2.351 2.358 2.627 3.85zm-4.314 3.002c.478.683.779 1.343.893 1.963.091.495-.016.996-.301 1.411-.286.415-.717.694-1.212.785-.212.04-.423.04-.63.009-.48-.782-1.065-1.472-1.624-2.038-.065-1.452.607-3.02 1.138-4.016.533.464 1.198 1.119 1.736 1.886zm-4.671 9.132c-.479-.782-1.065-1.471-1.624-2.038-.065-1.454.61-3.024 1.14-4.02 1.028.899 2.35 2.352 2.627 3.853.092.495-.015.997-.301 1.412-.286.414-.716.693-1.212.784-.212.04-.423.041-.63.009zm3.544 6.389c-.496.091-.997-.016-1.412-.301-.415-.286-.694-.716-.785-1.212-.19-1.023.49-2.008 1.513-2.196 1.494-.276 3.328.443 4.538 1.081-.903 1.028-2.36 2.353-3.854 2.628zm3.923-5.097c-.729-.32-1.582-.62-2.483-.789-.104-.182-.178-.38-.217-.591-.091-.496.016-.997.302-1.412.286-.415.716-.693 1.212-.785 1.493-.275 3.326.443 4.536 1.081-.742.851-1.968 2.038-3.35 2.496zm3.42-4.964c-.728-.32-1.581-.62-2.483-.79-.104-.181-.177-.379-.216-.59-.092-.496.015-.997.301-1.412.286-.415.717-.694 1.212-.785 1.494-.275 3.327.442 4.536 1.08-.741.852-1.967 2.039-3.35 2.497zm.938-5.753c-.104-.183-.178-.38-.217-.592-.09-.495.016-.996.302-1.411.286-.415.716-.694 1.212-.785 1.493-.275 3.326.442 4.536 1.08-.741.852-1.967 2.039-3.35 2.497-.728-.32-1.582-.621-2.483-.79zm5.904-4.175c-.729-.32-1.582-.621-2.483-.79-.104-.182-.178-.38-.217-.591-.091-.495.016-.997.301-1.412.286-.414.717-.693 1.212-.784 1.494-.276 3.33.443 4.54 1.082-.795.906-2.034 2.056-3.353 2.495z"/>
                            <path fill="#DB0812" fill-rule="nonzero" d="M40.818 2.832c-2.202 1.64-3.833 3.91-4.477 6.224-.737 2.649-.138 5.042 1.597 6.622-.597 1.055-1.152 2.144-1.592 3.2-.404-1.01-.942-1.916-1.55-2.722.863-1.378.982-3.062.305-4.787-.638-1.625-1.93-3.123-3.638-4.218-1.843-1.182-4.012-1.807-6.274-1.807-2.902 0-5.88 1.053-8.61 3.045l-1.466 1.07 1.748.477c2.882.788 5.183 3.023 7.213 4.996 2.072 2.013 4.03 3.915 6.298 3.916 1.117 0 2.183-.449 3.25-1.366 1.025 1.453 1.479.543 1.479 7.104 0 6.56-6.196 31.49-6.463 32.414-.267.924 1.734 4 1.734 4s5.185-28.267 6.638-33.706c1.454-5.439.912-8.063 2.358-10.625 1.074.583 2.077.867 3.054.867 3.186 0 5.258-3.066 7.452-6.312 1.957-2.897 4.177-6.182 7.479-7.882l1.61-.83-1.652-.742C54.697.595 52.092 0 49.568 0c-3.238 0-6.264.98-8.75 2.832zm-15.54 10.846c-1.79-1.74-3.777-3.671-6.266-4.807 2.023-1.184 4.095-1.783 6.177-1.783 4.18 0 7.339 2.476 8.3 4.921.248.634.505 1.682.085 2.732-1.555-1.588-3.267-2.673-4.332-3.348-.311-.198-.58-.368-.76-.497l-1.005 1.421c.22.157.508.34.841.55 1.097.696 2.762 1.752 4.2 3.272-.75.648-1.453.965-2.145.965-1.568 0-3.203-1.588-5.095-3.426zm17.144 2.115c-.665 0-1.378-.206-2.167-.625l.236-.379c1.718-2.73 3.462-4.942 3.48-4.964l-1.357-1.086c-.149.188-1.979 2.515-3.761 5.397-1.048-1.136-1.358-2.757-.843-4.61.542-1.95 1.942-3.878 3.84-5.293 1.524-1.136 4.1-2.49 7.718-2.49 1.773 0 3.6.33 5.448.982-2.835 1.983-4.806 4.9-6.576 7.519-2.012 2.977-3.75 5.549-6.018 5.549z"/>
                            <rect width="68" height="20" x=".988" y="47" fill="#DB0812" rx="10"/>
                            <path fill="#FFF" fill-rule="nonzero" d="M13.336 61v-.978l-1.01-.19v-2.774h4.044v2.774l-1.009.19V61h3.612v-.978l-1.01-.19v-6.9l1.01-.19v-.984H15.36v.984l1.01.19v2.882h-4.044v-2.882l1.01-.19v-.984h-3.62v.984l1.01.19v6.9l-1.01.19V61h3.62zm8.988-8.423v-1.48h-1.663v1.48h1.663zM23.27 61v-.978l-.946-.19v-5.7h-2.609v.984l1.01.19v4.526l-.952.19V61h3.497zm7.535 0v-.978l-1.01-.19v-2.78h3.295v-1.238h-3.294v-2.818h3.23l.102 1.161h1.244v-2.4h-7.185v.985l1.009.19v6.9l-1.01.19V61h3.619zm6.9-8.423v-1.48h-1.663v1.48h1.663zM38.65 61v-.978l-.946-.19v-5.7h-2.61v.984l1.01.19v4.526l-.952.19V61h3.498zm4.583.133c.562 0 1.04-.138 1.434-.415.394-.278.694-.668.901-1.172.208-.503.311-1.09.311-1.758v-.133c0-.737-.103-1.378-.31-1.924-.208-.545-.507-.97-.899-1.272-.391-.303-.868-.454-1.431-.454-.402 0-.754.076-1.057.228-.303.153-.558.375-.765.667v-3.802h-2.602v.984l1.009.19V61h1.377l.127-.857c.212.322.474.567.787.736.313.17.686.254 1.118.254zm-.458-1.263c-.313 0-.582-.07-.809-.213-.226-.141-.41-.341-.549-.6v-2.932c.136-.262.316-.47.543-.625.226-.155.5-.232.822-.232.347 0 .63.098.85.295.22.197.383.474.49.832.105.357.158.777.158 1.26v.133c0 .648-.12 1.156-.359 1.527-.239.37-.62.555-1.146.555zm7.218 1.263c.558 0 1.047-.078 1.466-.235.419-.156.764-.349 1.035-.577l-.502-1.003c-.258.186-.54.33-.844.432-.305.101-.643.152-1.016.152-.355 0-.657-.08-.904-.241-.248-.161-.438-.381-.571-.66-.134-.28-.209-.6-.226-.959l.013-.032h4.215v-.914c0-.643-.108-1.194-.324-1.653-.216-.46-.534-.814-.955-1.064-.421-.25-.943-.374-1.565-.374-.584 0-1.104.15-1.561.447-.458.299-.816.71-1.076 1.232-.26.522-.39 1.118-.39 1.787v.266c0 .66.131 1.247.396 1.759.264.512.637.913 1.117 1.202.48.29 1.044.435 1.692.435zm1.136-4.246h-2.66l-.019-.032c.043-.313.122-.594.238-.841.117-.248.272-.443.467-.587.195-.144.42-.216.68-.216.295 0 .54.063.732.19.193.127.335.304.426.53.09.227.136.49.136.79v.166zM57.141 61v-.978l-.952-.19v-3.58c.127-.233.285-.415.473-.546.188-.131.428-.188.72-.171l.895.05.185-1.479c-.085-.025-.194-.048-.327-.07-.134-.02-.26-.031-.378-.031-.356 0-.665.097-.93.292-.264.195-.488.474-.67.838l-.012-.14-.083-.863h-2.475v.984l1.002.19v4.526l-.952.19V61h3.504z"/>
                        </g>
                    </g>
                </g>
            </g>
        </g>
    </g>
</svg>
