<svg xmlns="http://www.w3.org/2000/svg" width="19" height="19" viewBox="0 0 19 19">
    <g fill="none" fill-rule="evenodd">
        <g fill="#FFF" fill-rule="nonzero">
            <g>
                <g>
                    <path d="M58.763.001c1.47.004 1.84.02 2.66.058 1.01.045 1.701.208 2.306.442.631.237 1.207.612 1.682 1.095.486.475.857 1.046 1.099 1.685.234.601.397 1.295.442 2.305.01.234.018.43.024.627l.006.198c.01.4.015.847.017 1.63v2.502c-.003 1.654-.017 2.017-.055 2.874-.044 1.01-.208 1.7-.442 2.305C66.01 17 65 18.01 63.722 18.502c-.602.234-1.296.398-2.306.442-.233.01-.43.019-.627.026l-.198.006c-.467.014-.997.02-2.05.023H56.46c-1.204-.002-1.724-.01-2.248-.03l-.198-.007-.43-.018c-1.01-.044-1.7-.208-2.305-.442-.631-.237-1.207-.612-1.682-1.094-.482-.476-.857-1.047-1.099-1.686-.234-.6-.397-1.295-.442-2.305-.035-.818-.05-1.186-.054-2.657V8.243c.004-1.47.02-1.84.058-2.66.045-1.01.208-1.7.442-2.306.238-.63.613-1.206 1.095-1.681.475-.486 1.047-.858 1.686-1.099.601-.234 1.295-.397 2.305-.442.819-.035 1.187-.05 2.657-.054zm-.228 1.726h-2.046c-1.18.002-1.685.01-2.199.029l-.194.007-.424.018c-.924.041-1.429.197-1.763.327-.412.152-.783.393-1.091.709-.32.304-.561.68-.713 1.091-.13.334-.286.835-.327 1.763-.01.23-.019.424-.026.617l-.006.193c-.016.522-.022 1.122-.023 2.481v1.094c0 1.529.008 2.095.03 2.673l.007.195.018.423c.04.924.197 1.429.327 1.763.152.412.393.783.709 1.091.304.316.68.557 1.091.71.334.13.835.285 1.764.326.883.04 1.223.052 3.045.055H58.3c1.822-.003 2.16-.016 3.046-.055.924-.041 1.43-.197 1.763-.327.828-.319 1.485-.976 1.804-1.804.13-.334.286-.835.327-1.763.038-.848.052-1.19.055-2.812v-.475V9.226v-.739c-.003-1.622-.017-1.968-.055-2.816-.04-.924-.197-1.429-.327-1.763-.152-.412-.393-.783-.709-1.091-.304-.316-.68-.557-1.091-.709-.334-.13-.835-.286-1.763-.327l-.422-.018-.194-.007c-.513-.019-1.018-.027-2.2-.03zM57.5 4.75c2.622 0 4.75 2.127 4.75 4.75 0 2.622-2.128 4.75-4.75 4.75-2.623 0-4.75-2.128-4.75-4.75 0-2.623 2.127-4.75 4.75-4.75zm0 1.669c-1.701 0-3.081 1.38-3.081 3.08 0 1.702 1.38 3.082 3.08 3.082 1.702 0 3.082-1.38 3.082-3.081 0-1.702-1.38-3.081-3.081-3.081zm5.225-2.62c.787 0 1.425.639 1.425 1.426 0 .787-.638 1.425-1.425 1.425S61.3 6.012 61.3 5.225 61.938 3.8 62.725 3.8z" transform="translate(-1221 -4485) translate(0 4368) translate(1173 117)"/>
                </g>
            </g>
        </g>
    </g>
</svg>
