<svg xmlns="http://www.w3.org/2000/svg" width="25" height="25" viewBox="0 0 25 25">
    <g fill="none" fill-rule="evenodd">
        <g fill="#FCC517" fill-rule="nonzero">
            <g>
                <path d="M309.79 40.5l9.735-9.735c.633-.633.633-1.657 0-2.29s-1.657-.633-2.29 0L307.5 38.21l-9.735-9.735c-.633-.633-1.657-.633-2.29 0s-.633 1.657 0 2.29l9.735 9.735-9.735 9.735c-.633.633-.633 1.657 0 2.29.316.316.73.475 1.145.475.415 0 .83-.159 1.145-.475l9.735-9.735 9.735 9.735c.316.316.73.475 1.145.475.414 0 .829-.159 1.145-.475.633-.633.633-1.657 0-2.29L309.79 40.5z" transform="translate(-315 -64) translate(19.972 36)"/>
            </g>
        </g>
    </g>
</svg>
