<svg xmlns="http://www.w3.org/2000/svg" width="24" height="25" viewBox="0 0 24 25">
    <g fill="none" fill-rule="evenodd">
        <g fill="#DB0812">
            <g>
                <path d="M317.528 48c1.38 0 2.5 1.12 2.5 2.5s-1.12 2.5-2.5 2.5h-19c-1.38 0-2.5-1.12-2.5-2.5s1.12-2.5 2.5-2.5h19zm0-10c1.38 0 2.5 1.12 2.5 2.5s-1.12 2.5-2.5 2.5h-19c-1.38 0-2.5-1.12-2.5-2.5s1.12-2.5 2.5-2.5h19zm0-10c1.38 0 2.5 1.12 2.5 2.5s-1.12 2.5-2.5 2.5h-19c-1.38 0-2.5-1.12-2.5-2.5s1.12-2.5 2.5-2.5h19z" transform="translate(-316 -64) translate(19.972 36)"/>
            </g>
        </g>
    </g>
</svg>
