<svg xmlns="http://www.w3.org/2000/svg" width="1440" height="13" viewBox="0 0 1440 13">
    <g fill="none" fill-rule="evenodd">
        <g fill="#FFF1BE">
            <g>
                <path d="M20 738l20 13H0l20-13zm160 0l20 13h-40l20-13zm-80 0l20 13H80l20-13zm160 0l20 13h-40l20-13zm-200 0l20 13H40l20-13zm160 0l20 13h-40l20-13zm-80 0l20 13h-40l20-13zm160 0l20 13h-40l20-13zm360 0l20 13h-40l20-13zm160 0l20 13h-40l20-13zm-80 0l20 13h-40l20-13zm160 0l20 13h-40l20-13zm-200 0l20 13h-40l20-13zm160 0l20 13h-40l20-13zm-80 0l20 13h-40l20-13zm160 0l20 13h-40l20-13zm-600 0l20 13h-40l20-13zm160 0l20 13h-40l20-13zm-80 0l20 13h-40l20-13zm160 0l20 13h-40l20-13zm-200 0l20 13h-40l20-13zm160 0l20 13h-40l20-13zm-80 0l20 13h-40l20-13zm160 0l20 13h-40l20-13zm360 0l20 13h-40l20-13zm160 0l20 13h-40l20-13zm200 0l20 13h-40l20-13zm-280 0l20 13h-40l20-13zm160 0l20 13h-40l20-13zm200 0l20 13h-40l20-13zm-400 0l20 13h-40l20-13zm160 0l20 13h-40l20-13zm200 0l20 13h-40l20-13zm-280 0l20 13h-40l20-13zm200 0l20 13h-40l20-13zm-40 0l20 13h-40l20-13z" transform="translate(0 -737) translate(0 -1)"/>
            </g>
        </g>
    </g>
</svg>
