<svg xmlns="http://www.w3.org/2000/svg" xmlns:xlink="http://www.w3.org/1999/xlink" width="80" height="80" viewBox="0 0 80 80">
    <defs>
        <filter id="8iu4qnkhga" width="153.3%" height="153.3%" x="-26.7%" y="-23.3%" filterUnits="objectBoundingBox">
            <feOffset dy="2" in="SourceAlpha" result="shadowOffsetOuter1"/>
            <feGaussianBlur in="shadowOffsetOuter1" result="shadowBlurOuter1" stdDeviation="5"/>
            <feColorMatrix in="shadowBlurOuter1" values="0 0 0 0 0 0 0 0 0 0 0 0 0 0 0 0 0 0 0.130613527 0"/>
        </filter>
        <circle id="hrd0nucfxb" cx="30" cy="30" r="30"/>
    </defs>
    <g fill="none" fill-rule="evenodd">
        <g>
            <g>
                <g transform="translate(-290 -4372) translate(300 4380)">
                    <use fill="#000" filter="url(#8iu4qnkhga)" xlink:href="#hrd0nucfxb"/>
                    <use fill="#FFF" xlink:href="#hrd0nucfxb"/>
                </g>
                <path fill="#DB0812" fill-rule="nonzero" d="M44.623 29.087l-6.728-6.711c-.504-.503-1.319-.501-1.82.004-.502.505-.5 1.322.004 1.825l4.516 4.505H17.287c-.71 0-1.287.577-1.287 1.29 0 .713.576 1.29 1.287 1.29h23.308l-4.516 4.505c-.504.503-.506 1.32-.004 1.825.501.505 1.316.507 1.82.004l6.726-6.71c.506-.505.504-1.325.002-1.827z" transform="translate(-290 -4372) translate(300 4380) rotate(-90 30.5 30)"/>
            </g>
        </g>
    </g>
</svg>
