<svg xmlns="http://www.w3.org/2000/svg" width="345" height="122" viewBox="0 0 345 122">
    <g fill="none" fill-rule="evenodd">
        <g fill="#FCC517">
            <g>
                <g>
                    <path d="M323.606.487c.186.147.912.435.768-.005-.145-.44.688-.067.843-.109.157-.04.77.048 1.004.307.235.261 1.127.221 1.065.105-.062-.115.714-.38 1.861-.33l.421.406.783.751c.069-.801.41-1.054.76-.562l.728-.336c.766-.351 1.721-.204 2.583.326.324.198.79.61 1.36.122.257-.22.95.27 1.397.555.22.141-.549.472-.053.734.14.074.41-.33.6-.3.304.044.765.174.853.433l.28.835c.616.248 1.447.61 1.848.804.401.195 1.69.517 1.93.456.242-.059.977.263 1.15.173.171-.09.525-.16.488.219-.036.376.855-.167 1.006-.24.151-.074.776-.004 1.262 0 .484.006 1.696.812 1.824.755.128-.059.56-.097.57.111.01.209.452.817.948.663.497-.153 2.02.709 2.606.94l.183.951c.091.471.96.532 1.124 1.452l.074.416c.56.318 1.11.625 1.223.686.113.063.318.503.2.846l.01.006.494.303c-.193.507-.336 1.308-.318 1.78l.048.448.104.942c.15 1.031.37 1.902.491 1.938l.12.012.125.013c.137-.002.26.082.27.185.013.107-.255.402-.521.585l-.219.204c-.05.046-.012.297.034.425.02.055.163.063.247.05.047-.008.08-.136.13-.149l.285-.065c.316-.057.562.02.546.172-.015.15.228.865.577 1.252l.23.427.147.273c.024.554-.294.804-.707.56s-1.412-.048-1.073 1.12c.338 1.169.411 4.337.074 4.484-.339.147-1.26.633-1.14.68.118.048.565.45.871.76l.116.363c.17.534.308.393.448.186l.07-.106c.118-.176.24-.328.385-.103l.2.313c.418.24.641.716.497 1.054-.145.339.279 2.106.363 2.937l-.272.772c-.294.83.25 2.253.938 2.335l.583.072c.652.17.93.332.618.363-.311.03-1.194.345-1.194.632 0 .286.315 1.17.7 1.072l.364-.071.205-.042c.222-.002.58.055.796.13.214.076 1.295-.088 1.804-.067.509.025 1.116 1.773 1.05 1.923l-.27-.055c-.534-.11-.818.444-.611 1.012.142.393.27.892.525 1.094l.56.444c.035.761.18 1.216.321 1.007l.142-.046c.146-.05.384-.008.472.118.085.118.093.452.02.597-.242.465-.579.74-1.066.652-.091-.016-.295.246-.303.396-.011.16.113.416.234.494l.393.255c.459.229.444.7-.034 1.05l-.42.035-.342.028c-.491-.38-.89-.173-.887.458l-.073.42-.106.611c-.467.187-1.072.368-1.343.4-.273.031-.205 1.346-.028 2.057.176.709.499 3.038.218 3.22-.282.184-.03 1.412.137 1.627.166.217.44.946.22 1.146l-.277.156c-.236.133-.526-.557-.788.057l-.033.076c-.233-.061-.662-.266-.952-.45-.29-.188-1.432.138-1.914.302-.482.162-2.074-.521-2.464-.77-.39-.25-1.829-.105-2.131-.193-.301-.086-1.07-.694-1.165-.444-.094.248-.287 1.128-.25 1.479.038.351.967.54 1.187.536l.098.126c.055.072.083.172.107.28l.033.163c.053.244.134.465.493.403l.097-.017c.16.49.525.545.807.12l.064.953.012.194c.355.17.96.292 1.347.271l.071.585.06.475c.093.545.005.838-.193.65-.199-.187-.93-.311-1.049-.162-.119.152-.69.324-.997.036-.305-.29-1.018-1.176-1.126-.974l.027.095c.172.627.58 1.279.512 1.847l-.076.656c-.484.747-.754 1.515-.6 1.706.155.192.813.147 1.064-.16l.173-.36.112-.233c.031-.332.101-.578.158-.551l.024.048.362.713c.437-.37.906-.597 1.04-.504.133.094.09.71-.406 1.171l.32.747.134.314c.352-.143.805.294 1.007.97l.132.438c.162.533.305 1.022.23 1.116-.094.118-.581.166-.866-.168l-.266-.293-.035-.04c-.147.02-.343.206-.436.417-.094.208-.198.923.048.957.245.032.971.324.754.532-.217.206-.764 1.01-.676 1.269.089.26.455.902.57.71l.103-.035c.348-.126.867.408 1.251 1.41l.16.416c-.22.471-.46.942-.53 1.043-.071.101-.089.524.117.705l.188.002c.5.009.66.23.447.82-.058.167-.196.426-.156.478l.222.305c-.067.351-.359.58-.648.511l-.13-.486-.052-.193c-.715-.088-.693.19.052.618l-.292.867-.154.459c-.117.532-.105 1.11.029 1.285.135.175.403 1.067.213 1.401-.192.33-1.096.793-1.11 1.104l.09.217.172.415c.146.532.14.803-.012.601-.152-.202-.752-.387-.927-.29-.175.097-.812.086-1.031.006-.22-.08-.84.105-.73.234.11.128.514.637.692.812.18.174.75-.265.813-.274.064-.008.187.219.153.583-.033.364.888-.021 1.063-.067.174-.045.454.273.15.473-.306.2-1.145.56-1.21.372-.066-.187-.406-.458-.506-.433-.101.023-.511 1.098-.679 1.077-.168-.023-.714.4-.849.99l.162.596c.151.558.365.915.845.976l.095.013c.118.158.082.574-.08.921-.081.174-.316.428-.542.658l-.217.218c-.134.134-.24.242-.27.292-.031.05-.05.15-.065.263l-.028.23c-.02.149-.044.276-.094.291-.112.04-.21.394-.248.438-.038.048.043.337.232.579.19.237.6 1.29.572 1.905l-.208.341c-.57.936-.434 1.422.374 1.988l.625.44c-.404.637-.865 1.479-1.024 1.866-.161.389-.65.883-.206.927l-.058.874-.024.36.044.495.047.54.063.704.238.294.283.354c-.093.429-.277 1.188-.409 1.687l.282.511.7 1.264c-.592.53-1.094.987-1.118 1.017-.025.031.4 1.245 1.114 2.484l.524 1.237.15.351c-.292-.113-.567-.214-.614-.223-.045-.01-.307.103-.474.27-.167.166-.772.572-.914.595-.141.023-.807.185-1.124.408l-.303.193-.366.232c-.425-.095-1.476.118-2.336.469-.861.351-3.65.614-4.127.797l-.444.089-.456.088c-.48.166-1.684.34-2.678.385l-.912.006-.467.004c-.464.25-1.113.865-1.445 1.36l-.427-.81c-.058-.11-.805.256-.812.227-.224-.86-.672.63-.99-.173l-.111-.277c-.482.435-1.06.715-1.282.62l-.048.053-.445.515c-.572-.08-1.227-.002-1.454.175-.226.176-1.157-.198-1.388-.137-.232.059-1.332.299-1.922.294-.59-.002-2.155.602-2.31.409-.154-.196-1.118.389-1.56.601l-.351-.122-.6-.214c-.612.14-1.408.3-1.77.357-.36.06-1.188.41-1.255.255-.068-.156-.695.084-1.037.471-.341.385-1.715-.177-2.025.023l-.11-.105-.49-.478c-.408.381-1.194.613-1.744.516l-.442.177-.452.183c-.424-.188-1.19-.32-1.703-.295l-.472.09-.444.085c-.474.208-1.181.12-1.571-.198l-.521.37-.375.267c-.56-.04-1.622.08-2.36.263l-.744-.282-.494-.187c-.666.272-1.382.53-1.59.574-.21.045-.91-.258-1.11-.124-.2.133-.895.087-1.36.068-.463-.021-1.657.345-1.701.197-.046-.147-.173-.162-.188.274-.008.23-.274.114-.552-.049l-.184-.112c-.18-.112-.34-.214-.408-.218-.193-.008-1.044.044-1.444.124-.401.078-1.485-.145-1.772-.06-.29.083-1.34-.148-1.714-.226-.377-.08-1.72.036-2.12-.075-.401-.114-1.465.679-1.646.71-.182.03-.744-.206-.963-.174-.219.032-.857-.036-1.335-.09-.476-.057-1.858-.232-2.028-.232-.169-.002-.594.234-.729-.044-.135-.28-1.278.036-1.65.103-.372.07-1.714.219-2.23.614l-.633-.6-.463-.439c-.762-.027-1.921.15-2.577.396l-.664-.377-.1-.055c-.292.457-.817.55-1.166.21-.351-.338-2.073.295-2.832.415-.653.102-2.261-.422-2.758-.589l-.144-.048c-.11-.034-.853.162-1.552.307l-.66-.322-.386-.19c-.224.63-.653.945-.952.707-.3-.24-1.125-.582-1.314-.345-.188.24-.92.8-1.076.547-.156-.254-.955-.622-1.6-.532l-.442.28c-.502.313-.955.244-1.341-.059l-.436-.343c-.34.295-.78.442-.977.335-.197-.11-.904-.354-1.105-.41-.201-.055-.879.19-1.114.412-.234.223-1.012-.002-1.22.09-.209.093-1.047-.027-1.306-.038-.258-.01-.96-.216-.981-.452-.022-.238-.166-.896-.265-.812-.098.086-.373.11-.438-.1-.064-.207-.491-.363-.707-.228l-.118.385c-.096.313-.557.433-.832.681-.787.71-.808.714-1.639-.128l-.13-.13c-.186-.14-.478-.09-.651.107-.174.194-.908.574-1.15.294-.242-.277-.956-.87-.99-.624-.034.246-.42.953-.782 1.01-.36.054-2.217-.194-3.426.166l-1.175-.581-.364-.179c-.618.51-1.223.713-1.343.455-.119-.261-.68.229-.745.313-.063.082-.615.112-1.174.099-.557-.013-2.15-.406-2.36-.478-.212-.071-.997.356-1.254.579-.255.219-1.532.14-2.062.684l-.62-.754-.37-.448c-.438.188-1.006.175-1.265-.027-.26-.202-1.024.635-1.301.694-.275.061-1.103-.317-1.131-.542-.028-.226-.418-.682-.772-.253l-.258.37-.298.425c-.339-.185-.745-.244-.903-.13-.159.116-.666.288-.695.044-.028-.242-.178-.326-.275.33l-.605-.355-.315-.185c-.266.111-.64.24-.833.286-.077.017-.237-.038-.417-.106l-.276-.104c-.183-.066-.353-.114-.445-.085-.23.076-1.042-.012-1.293-.235-.25-.223-1.145-.1-1.542-.257l-.348-.099c-.149-.042-.466.278-.493.23-.219-.37-.353-.234-.504-.078l-.084.085c-.029.026-.059.05-.09.07-.111.065-.364-.288-.57-.402-.037-.018-.222.215-.224.33l-.002.108c.134.122.2.278.149.347-.052.072-.304.027-.482-.071-.177-.1-.92-.024-1.26.17l-.308-.002c-.48-.002-1.146-.471-1.4-.21l-.494.496c-.4-.297-.9-.51-1.114-.475-.216.033-.92.403-1.11.605-.189.204-.363-.7-.394-.744-.032-.047-.477-.01-.985.067-.509.078-2.147.32-2.517.37-.37.049-1.405-1.268-1.54-1.077-.135.19-.457 1.115-1.023 1.21-.566.097-2.726-.875-3.642-1.24l-.802.983-.22.27c-.553-.152-1.124-.373-1.27-.487-.144-.117-.736.076-.98-.098-.244-.177-1.05.292-1.176.317-.127.03-.838-.036-1.293-.12-.456-.084-2.313.141-3.138.387l-.693-.69c-.018-.016-1.682.537-1.703.564-.087.105-.161.284-.26.314l-.423.124c-.39-.282-.68-.707-.644-.947.035-.24-.085-.925-.246-.925-.16 0-.5.185-.378.41l.015.242.02.305c-.008.46-.357.73-.775.595l-.365-.006-.291-.007c-.308.127-.915.265-1.349.316-.433.048-1.708-.316-1.964-.16-.257.156-1.108-.185-1.351-.002-.242.183-1.056-.133-1.188-.038l-.135.027c-.634.127-1.21.104-1.87-.187l-.577-.254c-.562.017-1.153.027-1.548.029h-.32l-.07-.002c-.252-.008-.508-.823-.824-.284l-.167.3-.092.165c-.09.191-.521.465-.958.612-.438.145-1.748-.57-1.967-.633-.22-.065-.661.002-.81-.101-.147-.101-.76.017-.95.052-.187.038-1.014.106-1.425.038-.409-.065-1.48-.469-1.499-.576-.02-.107-.252.126-.482.745l-.7-.537c-.193-.147-.717.57-1.116.642l-.347.063c-.412-.24-1.06.006-1.441.549l-.583-.646-.332-.368c-.547-.311-1.076-.391-1.177-.177-.101.217-.575.753-.72.486-.144-.265-.692-.53-.962-.124l-.252.185c-.145.105-.582-.03-.586-.082l-.06-1.035c-.704-.292-1.315-.265-1.36.06-.043.323-.438.918-.812.817l-.3.116c-.234.089-.392.379-.42-.15-.03-.559-.353-.691-.585-.437-.65.72-1.39.234-2.074.381l-.475.103c-.527.11-1.031.204-1.123.21l-.084-.018-.568-.137c-.777-.194-1.204-.459-.949-.587.255-.13-.266-.81-.311-1.029-.046-.219-.357-.442-.377.028-.02.473-.283 1.621-.538 1.445l-.17-.202-.203-.24c-.2-.473-.654-.625-1.01-.339-.358.286-1.346.511-1.474.154-.129-.358-.718-1-.995-.53l-.003.376-.008 1.115c-.461.042-1.212-.054-1.665-.219-.454-.162-1.768.097-1.86.045-.092-.055-.544-.261-.783-.379-.24-.114-1.294-.017-1.805.236l-.332-.17-.325-.17c-.207-.645-.61-1.015-.892-.815-.285.195-.922.845-.893 1.018l-.01.16-.01.14c-.062.15-.191.247-.286.213-.096-.03-.45-.446-.65-.75-.199-.31-1.04.34-1.172.359-.13.017-.693-.116-.966-.221l-.03-.166-.1-.553c.36 0 .915-.043 1.233-.097.317-.053.46-1.18.15-1.26-.308-.078-1.223-.01-1.227.357l-.133.339c-.16.416-.434 1.048-.685 1.069-.694.054-.147-.863-.437-1.204l-.042-.048c-.068-.057-.35.3-.628.797-.28.495-1.743.48-2.2.52-.456.042-.954-1.153-1.091-.707-.138.448.844.776.904.846.06.073.089.473-.065.72l-.162.03-.205.039c-.242-.14-.76-.667-1.15-1.174l-.096-1.793c-.013-.24-.492-.673-.515-.648-1.174 1.229-.78-.25-.907-.824l-.014-.065c-.125-.137-.248.1-.275.526-.027.422-.308 1.2-.57.86-.263-.339-.666 1.186-.755 1.479-.088.292-.498 1.195-.66 1.235-.162.04-1.066-.042-1.75.02l-.616.047-.13.008c-.142.089-.261.026-.265-.138-.003-.162.019-.556.01-.86-.009-.308.48-.96.756-.91l.22.072.203.065c.182.219.585.5.897.625l.304.059c.146.025.411-.08.452-.21l.167-.524c.142-.596.496-1.092.787-1.1l.093-.18c.21-.405.208-1.037.464-1.342l.486-.582c-.28-.497-.65-.945-.826-.995-.175-.053-.718.296-.718.915 0 .618-.355 2.217-.754 2.236l-.239.427c-.297.526-.583.583-1.027.107l-.225-.24c-.432.316-.954 1.01-1.16 1.54-.206.53-1.253 1.019-1.093.676.094-.202.313-.632.498-1l.147-.295c.066-.133.117-.239.14-.296.098-.225-.484-.814-.589-1.19l-.157-.17-.377-.415c-.24-.579-.515-1.22-.614-1.433-.099-.214-.596.488-.736.835l.005.318.003.198c.043.26-.065.923-.24 1.477-.176.553-.224 2.202-.292 2.236-.068.038-.307-.017-.382-.198-.072-.177-.46-.806-.631-1.067-.172-.258.62-.883.715-1.1.092-.214.087-.578-.214-.292-.301.284-1.179-.535-1.369-.457-.19.078.02 1.018.099 1.321l.028.282.028.288c-.012.303-.437.455-.943.34l-.413.03-.07.005c-.066.66-.215 1.12-.33 1.018-.114-.103-.721-.063-1.09.097l-.01-.03-.223-.608c.386-.09.658-.363.606-.605-.052-.24-.423-.777-.654-.41-.23.365-1.071 1.253-1.414 1.253-.343 0-1.28-.038-1.285-.08-.001-.046.181-.191.413-.227.232-.036.906-.47.907-.873 0-.402.97-.865 1.154-.915.182-.053.714-.36.788-.511l-.028-.108c-.034-.132-.197-.34-.253-.317-.927.387-1.84.848-2.842.793l-.673-.036c-.325.656-.727 1.3-.895 1.429-.166.13-.522-.556-.606-.644-.082-.086-.475-.366-.656-.478-.18-.11-.612-.528-.507-.66.105-.133.505-.406.653-.307l.043.143.236.761c.516-.12 1.026-.305 1.135-.408.108-.105.304-.667.299-.938-.004-.272-.733-.76-.979-.819l-.015-.1c-.214-1.547-.86-.67-.982-.141-.217.948-.923 1.03-1.355 1.54l-.385.454c-.253.589-.51.822-.57.52l-.03-.28-.056-.503c-.454-.278-1.134-.751-1.51-1.05l-.067-.362c-.166-.894-.6-.923-1.166-.917-.244.002-.53-.393-.725-.318-.191.074-.276.537-.441.794l-.057.09c-.214.034-.221.202-.016.37.205.17.583.779.41 1-.172.222-1.45-.579-1.298-.842l.072-.259c.214-.765-.076-1.214-.694-.906-.486.24-.617-.305-.915-.345l-.378-.053c-.447.05-1.289.282-1.872.518l-.318-.242-.402-.301c-.366.063-.918.237-1.229.387-.311.15-1.39-.318-1.628-.39-.24-.07-.847.06-1.146.024-.15-.018-.457-.05-.761-.036l-.065.004.047.04c.177.17.381.47.481.659l.04.084c.015.033-.58.052-1.598.059l-.004-.001.03-.027c.08-.121.315-.465.535-.691l.045-.045-.064.025c-.075.034-.138.077-.182.133-.16.203-.623.418-1.063.406l-.077-.006c-.006.079-.009.136-.007.181l.001.027h-.692l-.054.042-.103.08-.054.023c-.154.067-.266.011-.362-.094l-.044-.053h-.033c-.928-.003-1.989-.01-3.133-.021l-.095-.002-.055.017c-.448.136-.907.297-1.18.408-.545.216-2.228-.289-2.885-.152l-.458-.329.19.004 1.683.022.27.003-.095-.06c-.196-.13-.401-.294-.555-.45-.268-.273-1.631.45-1.767.196-.137-.253-.675-.657-.844-.398-.167.261-.777-.275-.876-.147l-.08.124c-.1.154-.202.452-.284.444-.071-.008-.154.006-.24.02l-.127.02c-.233.03-.443-.005-.417-.507l.01-.215c.358-.248.517-.549.354-.664-.163-.118-.688-.226-.812.016-.124.244-.671.842-.664.253l-.02-.284c-.009-.137-.095-.385-.12-.379l-.298.061c-.322.093-.52-.193-.442-.637l-.53.187-.1.036c-.088.139-.434.122-.77-.036-.336-.16-1.622-.166-1.993-.139-.372.025-1.55-.694-1.86-.641-.307.052-1.125.273-1.245-.186-.122-.46-1.533-.738-1.66-.69l-.02-.033-.656-1.269c-1.164-.193-2.207-.387-2.317-.437-.111-.047-.636-.023-1.05-.065-.415-.045-2.123.107-2.87.193l-.148-1.197c-.015-.13-.31-.353-.372-.307l-.428.318c-.433-.249-.882-.621-.996-.823-.115-.206-.863-.593-1.083-.734-.22-.143-.897-.417-.99-.375-.093.045-.401-.088-.474-.401l-.14-.202c-.078-.11-.35-.127-.474-.042-.483.326-1.02.385-1.366.412-.747.057-.382-.347-.34-.806.022-.24-.442-.528.147-.622.273-.045.543-.2.793-.362.282-.181.233-.37.017-.66l-.233-.312c.237-.282.7-.846 1.03-1.252.331-.408.73-1.977.366-2.06l-.265.045-.312.05c-.33.162-.844.122-1.138-.092-.294-.215-.224-2.05-.112-2.777l.017-.112.038-.266c.028-.193.058-.414.088-.641l.044-.342c.086-.684.157-1.325.13-1.338-.044-.025-.405.292-.665.715l-.354-.698-.18-.356c.068-.336.276-.936.464-1.331l-.328-.194-.174-.103c-.405.282-.647.213-.535-.154l.023-.305.062-.841c-.287-.825-.549-1.8-.579-2.169-.03-.368.338-1.582.883-1.916.544-.337.54-2.26.143-2.106l-.23.244-.246.26c-.282.239-.828-.155-1.21-.876l.199-.613c.066-.197.058-.437.14-.62.196-.442.425-.856.639-1.285.238-.484.515.62.794-.045l.08-.191c.333-.093.296-.3-.08-.467l-.018-.179c-.029-.297.156-.66.314-.936.084-.145.32-.133.455-.252.326-.289.424-1.162.101-1.29-.4-.162-.506-.366-.655-.818l-.078-.238c-.565-.08-.51-.391.122-.688.633-.297 2.336-1.546 3.127-.873l.962-.206c.19-.04.596.5.676.856l.197.88c.461-.255.708-.813.55-1.24l.029-.36c.086-1.091.232-2.18.414-3.252l.042-.24c.254-.197.574-.429.711-.506.14-.08.486-.73.736-.737.12-.002-5.996-.04-12.332-.087l-1.268-.01c-6.338-.048-12.494-.105-12.451-.143.09-.075.382-.452.487-.61.107-.155.61.436.688.533.077.096.5.218.535-.215.037-.431.367-1.178.67-.907.304.272 1.138-.309 1.076-.397-.062-.086-.073-.442.113-.598l.103.06c.425.235.915 1.118 1.054-.295l.003-.03c.13-.006.452.08.712.192.26.113 1.108-.339 1.354-.36.244-.021 1.01.074 1.386.074.375-.002 1.016-.888.749-1.06-.268-.171-.844-1.099-.7-1.686.145-.587-1.329-2.25-1.203-2.305.128-.053.264-.57-.122-.97l.008-.337.02-.757c-.387-.017-.85-.225-1.029-.465l-.123-.25-.275-.564c.175-.646.183-1.725.017-2.394l-.102-.633-.033-.198c.059-.263.428-.214.822.11.393.321 1.612-.257 1.644-.366.033-.108-.093-.535-.344-.703l-.117.088-.272.204c-.35.27-.58.267-.511-.004l.055-.25.057-.261c.054-.29.02-.488-.074-.438-.096.049-.512.108-.714.02-.204-.087.198-1.353.355-1.976l.556-.154c.109-.031.307-.1.306-.136l-.088-1.429c.879-.55 1.41-1.157 1.18-1.346-.23-.191-1.118.053-1.26-.004-.144-.057-1.21-.545-2.032-1.012l-.86.219c-.385.096-.431-.202-.535-.634l-.154-.643c-.243.408-.73.614-1.082.467-.354-.15-1.447-.812-1.664-1.082l.028-.05.302-.532c-.189-.532-.415-1.067-.502-1.185-.086-.122-.378-.294-.453-.117l-.103.111-.15.166c-.194.14-.585.375-.871.518-.285.143-1.187.389-1.33.21-.141-.18-.437-.974-.288-1.302.147-.324 1.218.208 1.642.223l.066-.347c.072-.372-.156-1.208-.277-1.214l-1.893-.107c.248-1.668.228-3.076-.046-3.13-.273-.055-.742.715-.812.622-.072-.09-.276-.355-.3-.385-.023-.031-.177-.393-.287-.738-.111-.345.264-1.519.39-1.8l.036-.272.034-.253c-.049-.294-.238-.505-.42-.469l-.163.049-.131.04c-.14.063-.297-.036-.346-.223l.048-.089.253-.48c.436-.715.385-1.085-.113-.824l-.811.086c-.607-.023-1.135-.286-1.171-.587l.01-.214.112-2.207c-.723-.915-1.413-1.731-1.533-1.818l-.036-.113-.146-.463c.05-.549-.085-1.466-.298-2.036l-.308-.162c-.775-.404-.758-1.124-.72-1.936l.016-.305c-.007-.574-.405-.807-.884-.521l.314-.739c.292-.683-.233-.667-.389-.944-.043-.078-.338.877-.49-.009l-.021-.12.537-.446c.051-.046-.093-.753-.444-1.47l.127-.816c.032-.213.144-.423.128-.619l-.017-.229c-.11-.24-.081-.398.06-.35.143.05.75-.081 1.007-.403.258-.32-.119-1.54.065-1.635l.046.053c.48.549.901.654 1.318-.118l.36-.665c.387.472.733.648.77.396.038-.253.642-1.124 1.262-1.376l.423 1.142.22.591c.596-.658.984-1.243.864-1.295-.119-.053-.418-.337-.382-.505l.027.002c.286.017.574.057.859.111l.132.023c.14.07.313-.048.382-.256.07-.206.558-.097.606-.24.047-.145.32-.547.413-.294.093.25.628.555.897-.123l.21-.321.117-.173c.241-.048.696.076 1.008.278.313.202 1.453-.263 1.68-.049.227.21.893.697 1.144.082l.215-.422.212-.417c.391-.04.89.067 1.105.24.216.175.653-.667.914-.654.259.012.998.25 1.096.364.095.113.547.284.655-.066.107-.349.606-1.203.857-1.068.251.13.859-.06 1.056-.173.198-.115.762.23.862.122l.014-.11.05-.403c.232.057.846.385 1.364.734l.065-1.102.005-.084c.112-.074.628-.282 1.146-.465.517-.183 2.255.233 2.706.202l.325.122c.335.128.556.704.575-.244.001-.1.387-.288.4-.265.406.749 1.017.143 1.132-.055.368-.637.885.23 1.28-.372l.15-.228c.636.29 1.232.552 1.325.581.095.027.594-.362.944-.778.35-.419 1.554.315 1.62.267v-.044l-.027-1.126c.586.232 1.46.122 1.942-.248l.419.869.206.429 1.276-.854.276-.086.088-.03c.09-.042.398-.05.684-.017.288.036 1.294-.092 1.594-.008.3.084 1.049-.393 1.123-.274.075.12.39.413.456.257l.069-.128.074-.14c.093-.146.194-.174.225-.062.03.113.181.492.258.551l.072-.027.538-.198c.61-.164 1.197-.362 1.307-.446l.078-.112.548-.801c.415.74.842 1.161.948.936.107-.225.46-.686.565-.564.106.122.336-.345.355-1.218l.782 1.105.137.191c.404-.107.93-.172 1.17-.145.237.025.79.202.807-.072.016-.273.831-.31.958-.115.125.193.347-.152.33-.976l.861 1.037c.05.061.234-.052.435-.192l.175-.124c.087-.061.17-.12.243-.166l.153-.095c.15-.122.777-.433 1.394-.694.618-.259 2.212.898 2.339.905.128.004.888-.194 1.417-.345.529-.152 2.46-.06 2.85.01l.167-.195.4-.47c.357.255.855.499 1.106.541l.238.002.432.004c.437-.284.982-.59 1.209-.681.228-.09 1.352-.227 1.953-.23l.548-.025.16-.008c.173-.112.34-.038.371.162.031.202.68.092.771-.072.092-.162.489-.507.633-.324.146.185.65.488.856.337.205-.15 1.086-.583 1.503-.627l.136.27c.3.59.65-.583.977.163l.14.32c.512-.347 1.05-.5 1.194-.345.143.16.583.482.623.335.04-.15.226-.499.32-.448.094.05.405-.015.48-.255.073-.242 1.277-.164 1.99-.372l.782.324c.63.26 1.478.366 2.233-.32l.361-.328c.684.17 1.315.423 1.398.56.085.138.498.19.708-.26.207-.452 1.161.318 1.228.141.064-.176.334-.59.373-.302.038.288.251.62.405.24.154-.38 1.277.18 1.739.006l.549.122.722.16c.872-.453 1.634-.69 1.695-.528.06.162.293.49.361.307.07-.185.384-.659.558-.682l.063.08.514.656c.687-.103 1.619-.143 2.07-.09.45.05 1.862-.257 2.192.128l.39-.702c.066-.118.552.21.84.195l.847-.035c.931-.09 2.235-.312 2.895-.49l.494.744.1.15c.324-.087.812-.154 1.088-.148.275.006.95.219.978-.025.03-.242.93-.11 1.243.374l.487-.605.158-.196c.44.124.962.26 1.16.299.2.04.928.166 1.195.172h.243c.183 0 .374.044.545-.01.19-.064.354-.26.544-.312l.113-.03c.149.102.44.098.648-.01.21-.107.852.238 1.172.572l-.011-.875V6.44c.194-.006.886.259 1.538.587l.602.038.471.027c.532-.332 1.065-.67 1.184-.753.118-.084.556.311.743.823l.574-.274c.298-.143.84-.282.95-.1.47.763.623-.489 1.058-.173l.378.275c.537.036 1.227.179 1.532.318l.095-.12.575-.728c.616.364 1.218.54 1.336.393.12-.151.583-.42.706-.191.122.227.489.873.513.87.023-.001.387-.241.72-.468.331-.227 1.713-.257 2.154-.166.443.092 1.627-.078 1.968.115.343.194 1.219-.517 1.521-.269l.01-.017.833-1.466c1.106.62 2.231 1.12 2.503 1.11.27-.01.777-.144.743.264-.025.319.609-.091 1.02-.365l.159-.106.117-.074c.272-.16.86-.038 1.062.02.2.06.72-.153.766-.008.048.144.29.51.385.333.094-.177.714-.612 1.185-.608l.389.288 1.16.547.266-.257c.348-.338.682-.51.742-.378.06.132.53.614.822.864l.618-.77.07-.088c.153.004.42.139.593.3.173.163 1.237.1 1.89-.281l.053-.07.246-.334c.309.173.487.86.397 1.53l.792-.655.6-.496c-.04.627-.028.778.03.338.058-.441.927.232.973.215.046-.019.435-.114.76-.219.326-.105 1.544.41 1.87.526.327.116 1.133-.475 1.253-.322.121.152.459.56.487.572.028.013.19-.147.333-.328.142-.18.778-.387 1.031-.26l.242.025c.14.017.39-.316.43-.27l.41.478c.419-.244 1.181-.24 1.694.008l.478.213.19.084c.236-.002.544-.13.684-.282.14-.151.727-.191.911-.37.185-.179 1.36.212 1.934.265l.537.055.457.044c.48.193.95.244 1.044.11.095-.138.653-.411 1.031-.316l.29.183c.305.193.56.803.577-.198.001-.03.224-.082.338-.07.705.072 1.43.327 2.106.186l.52-.108c.412.246.84.463.953.486.114.021.628-.126.913-.23.283-.106 2.04.083 2.527.298.486.218 1.836-.833 2.147-.817.314.017 1.466-.197 1.86-.454.396-.255 1.31.833 1.414.814.106-.021.691-.574.941-.151l.258.075c.268.076.652-.387.895-.282l.504.217c.268-.39.65-.692.848-.67l.124.113.23.216c.214.301.493.415.622.253.126-.162.47-.364.493-.11.023.253.8.297.926.095.127-.2.685-.465.805-.233.118.229.52.87.597.862l.027-.074c.253-.681.588-.55.924-.39l.134.064c.134.062.267.112.392.1l.232-.026c.339-.162.738-.255.888-.208.151.048.561.103.829.258.267.154 1.417-.3 1.904-.107l.54-.174c.298-.095.708.317.99.2l.483-.203c.478.133 1.214.284 1.635.343l.392-.092.689-.162c.772-.089 1.507-.177 1.633-.196.125-.019.53.377.722.718.191.34 1.048-.196 1.191-.04.143.157.598.458.694.32l-.018-.104c-.054-.313-.263-.856-.232-.875l.452-.305c.102.476.284.913.404.97.121.057.464-.114.586-.255.121-.145.549-.4.688-.233.139.164.527.02.559-.673l.705.46.022.015c-.112.358.174.56.636.452.461-.109 1.564.71 1.664.581l-.003-.114-.016-.795c.422.147.854.387.96.537.106.149.465.45.494.195.032-.256.346-.648.637-.338.292.307 1.482-.177 1.807-.188.326-.008 1.176.564 1.242.76.068.2.947-.173 1.064-.373.118-.202.751-.4.959.326l.628-.227c.662-.24-.41-.784.072-.875l.489-.09c.523.017 1.713.033 2.737.035h1.208c.487 0 .974-.027 1.46.009l.406.027c.435.108 1.124-.158 1.533-.59l.437.786.262.469c.037-.423.263-1.024.505-1.334l.205.33.33.533c.396-.162.974-.377 1.284-.476.31-.099 1.334-.37 1.58-.587.245-.218 1.154.394 1.476.423.32.03 1.265.238 1.43.114.165-.122.829-.406 1.26-.54l.324-.262.614-.492c.244.541.466.825.518.676l.009-.043c.028-.235.407-.829.765-.64.359.19 1.56.674 1.924.674.363.002 1.652-.837 2.35-.863l.579.043c.591.042 1.143-.122 1.71-.097l.39.019c.317-.249.869-.316 1.23-.145l.18-.141c.567-.444.734-.242.798.498l.005.063c.317.015 1.042-.441 1.609-1.012l.851.873.087.089c.094.097.178-.135.187-.518.01-.38 1.106.055 1.36.169.257.115 1.17-.003 1.44-.1.272-.096 1.12-.397 1.337-.319.218.078 1.068-.35 1.552-.271.481.077 1.904-.055 2.106.065.203.124.635.637.678.475.044-.16.305-.431.405.036l.148.08.246.132c.317-.056 1.033-.149 1.588-.206l.321-.307.43-.41c.315.24.686.438.825.438.138 0 .51-.238.628-.337.117-.099.91.17 1.336.318.425.145 1.656-.364 1.766-.415.111-.052.669.888.704.619.036-.274.425-.894.799-.897l.33.032.425.04c.452.29 1.09.457 1.419.372.326-.084 1.341-.532 1.59-.605.248-.076.889.307.927.054.039-.252.225-.9.334-.888l.054.068c.432.536.795 1.167 1.53.515l.211-.187c.413.124.914.193 1.114.154.2-.04.802.256.936.28l.115-.039.438-.138c.48-.162 1.187-.234 1.567-.158l.351.044.27.032c.366-.427.767-.573.89-.329.125.249.522.554.702.324.181-.231.9-.71 1.09-.422.193.286.848.544 1.42.612l.455.113.45.114c.33-.202.872-.396 1.202-.427l.288-.204.139-.1c.213.056.93-.125 1.592-.4l.652.67.344.356c.656-.053 1.223-.385 1.258-.739.035-.351.84-.111 1.038.028.197.138 1.005.225 1.272.303.269.077.926-.415.981-.375.056.04.295.311.434.476.139.164 1.176.5 1.019.263-.158-.238-.126-.501.341-.181l.505-.73c.212-.305.93-.082 1.414-.042l.358.031c.272.35.562.652.645.67.082.02.76.037 1.422.134l.458-.78.073-.125c.64.347 1.105.438 1.03.204-.075-.233-.195-.827-.14-.91.056-.087.527-.222.954-.314.43-.093 1.617.475 1.811.324l.09.063.418.297c.5-.034 1.101.092 1.336.277.236.185 1.09-.877 1.629-1.394l.528.286.612.33c.362-.44.705-.808.761-.816.057-.009.276-.097.443-.267.169-.17.876.302 1.06.45zM66.355 115.936l.08.002c1.252.036 2.802.073 4.505.108l.12.002-.034.006c-.108.024-.208.081-.267.163-.102.143-.464.41-.582.263-.117-.147-.63.133-.74.227-.111.095-.691.257-1.26.404l-.503-.254c-.262-.13-.51-.301-.762-.459-.074-.046-.144-.114-.215-.184l-.105-.106c-.07-.068-.142-.13-.217-.165l-.02-.007zm-2.882-.12l.048.004c.17.015.438.03.793.045l.163.007-.012.021c-.057.099-.118.217-.184.358l-.338.72-.045-.155c-.137-.459-.284-.807-.401-.971l-.024-.029zm7.752.236l.11.002c1.328.027 2.739.053 4.166.076l.842.014-.107.04c-.242.089-.417.155-.485.182-.169.07-.887.009-1.308.013-.422.004-1.518.278-1.561.122-.045-.158-.285-.444-.432-.27-.147.175-.673.4-.861.14l-.192-.185-.13-.125-.042-.009zm15.591-.359l-.676.261-.15.056.042.066c.034.056.07.11.106.16l.012.015.272.002h.345c.113-.085.257-.188.386-.258l.027-.015-.093-.042c-.103-.057-.196-.137-.271-.245zm-1.514.049l-.364.237c-.511-.01-1.054-.046-1.206-.075-.152-.03-.689.128-1.037.157-.35.028-1.378-.37-1.567-.019l-.197.165.076.001 1.592.018.29.002.168-.049c.292-.083.566-.15.761-.177l.132-.012c.46-.015 1.234.05 1.722.143l.318-.123-.01-.018c-.159-.25-.333-.473-.678-.25zm-19.93.163l.246.009.534.016h.006l-.02.007c-.084.038-.175.12-.274.27-.036.052-.293-.024-.367-.129l-.121-.168-.004-.005zm12.256-.224l.483.349.2.142-.236-.002-.857-.013-.859-.013h-.016l.02-.007c.306-.112.692-.252 1.093-.395l.172-.061zm-13.107.12c.294-.453.5-.35.798.033l.053.071c-.327-.01-.62-.021-.874-.032l-.021-.001zM25.173 87.219c.201-.522.255.038.378.192l.137.171c.163.108.303.456.312.773l-.04.148c-.033.116-.066.25-.1.387l-.068.279c-.102.416-.21.802-.328.826-.279.058-.284-.321-.268-.74l.01-.252c.008-.25.005-.487-.063-.622-.25-.494-.128-.747.03-1.162zm3.894-10.539c.152-.756.325-.902.387-.33l-.017.4c-.035.857.06 1.352.455 1.422l.05.01c.063.57-.056.925-.263.79-.208-.137-.764-1.535-.612-2.292z" transform="translate(-16 -1171) translate(-5 684) translate(.028 487)"/>
                </g>
            </g>
        </g>
    </g>
</svg>
