<svg xmlns="http://www.w3.org/2000/svg" width="419" height="104" viewBox="0 0 419 104">
    <g fill="none" fill-rule="evenodd">
        <g fill="#FCC517">
            <g>
                <g>
                    <path d="M402.063 8.415c.23.125 1.123.371.945-.004-.177-.375.847-.057 1.038-.093.193-.034.948.041 1.236.262.289.222 1.386.188 1.31.09-.076-.1.878-.325 2.29-.282l.518.346.963.64c.085-.683.505-.898.935-.479l.897-.286c.942-.3 2.117-.174 3.178.278.399.168.972.52 1.673.104.317-.189 1.169.23 1.72.473.27.12-.676.402-.066.626.172.063.505-.282.739-.257.373.038.941.15 1.05.37l.343.712c.759.211 1.782.52 2.275.685.493.167 2.08.44 2.375.389.297-.05 1.202.224 1.415.147.21-.077.646-.136.6.186-.044.321 1.052-.141 1.238-.204.124-.042.507-.03.926-.016l.317.01.31.006c.596.005 2.087.692 2.245.644.158-.05.69-.083.7.095.012.177.557.696 1.168.565.611-.131 2.486.604 3.207.801l.224.81c.113.403 1.18.455 1.383 1.238l.092.355c.689.271 1.365.533 1.504.585.14.054.392.429.248.72l.011.006.608.258c-.237.433-.413 1.116-.392 1.518l.06.381.128.804c.184.879.455 1.621.604 1.651l.146.011.155.011c.17-.002.32.07.334.158.015.091-.316.342-.643.498l-.269.174c-.061.04-.015.253.042.363.024.046.2.053.303.043.059-.008.1-.117.162-.128l.35-.055c.389-.049.69.018.67.147-.017.127.281.737.712 1.067l.282.364.18.233c.03.472-.361.685-.87.477-.507-.208-1.736-.041-1.32.954.417.997.507 3.698.092 3.823-.417.126-1.55.54-1.403.58.146.04.695.383 1.072.647l.143.31c.209.456.38.335.551.159l.095-.099c.142-.147.29-.268.465-.08l.246.267c.515.205.789.61.611.899-.178.289.344 1.795.447 2.503l-.334.658c-.362.709.307 1.921 1.154 1.991l.718.061c.802.145 1.144.283.76.31-.383.025-1.47.294-1.47.538 0 .244.387.997.86.915l.449-.061.252-.036c.274-.002.715.047.98.111.141.035.585.01 1.064-.016l.361-.02c.3-.016.587-.027.796-.021.626.021 1.373 1.511 1.292 1.639l-.333-.047c-.657-.093-1.006.379-.752.863.174.335.332.76.646.932l.69.379c.042.649.22 1.036.395.859l.174-.04c.18-.043.473-.007.581.1.105.101.115.386.025.51-.299.396-.712.631-1.312.556-.113-.015-.364.21-.374.337-.013.136.14.355.29.421l.483.217c.564.196.546.597-.042.895l-.518.03-.42.024c-.605-.323-1.096-.147-1.091.39l-.09.36-.131.52c-.575.16-1.319.313-1.652.34-.336.027-.253 1.148-.035 1.754.217.604.614 2.59.269 2.746-.347.156-.038 1.203.167 1.386.205.185.544.807.273.977l-.342.133c-.29.113-.648-.475-.97.048l-.04.065c-.287-.052-.815-.226-1.172-.384-.357-.16-1.762.118-2.355.258-.21.05-.594.008-1.021-.076l-.02.314c-.263-.027-.966-.325-1.414-.687-.254-.081-.46-.155-.578-.207-.48-.213-2.25-.09-2.622-.165-.37-.073-1.317-.592-1.433-.378-.116.211-.354.96-.307 1.26.046.3 1.189.461 1.46.458l.12.107c.08.071.114.177.146.286l.04.13c.066.192.18.355.594.305l.12-.014c.197.418.645.464.992.102l.078.812.015.165c.437.146 1.183.25 1.658.232l.088.498.073.405c.114.465.006.714-.238.555-.244-.16-1.144-.266-1.29-.138-.146.129-.85.276-1.227.03-.07-.046-.159-.11-.256-.183l-.205-.154-.215-.16c-.324-.234-.634-.43-.71-.333l.034.08c.21.535.712 1.09.63 1.575l-.094.56c-.596.636-.928 1.29-.737 1.454.19.163 1 .125 1.309-.137l.212-.306.138-.2c.038-.283.125-.492.194-.47l.03.042.445.608c.538-.316 1.115-.51 1.279-.43.164.08.113.606-.498.999l.393.636.165.267c.433-.122.991.251 1.239.827.245.576.563 1.223.446 1.325-.116.1-.715.142-1.066-.143l-.327-.25-.043-.034c-.181.017-.422.176-.537.356-.116.177-.244.787.059.816.302.026 1.195.276.928.453-.267.176-.94.861-.832 1.082.11.222.56.769.702.606l.127-.03c.428-.108 1.066.347 1.539 1.2l.196.356c-.27.401-.565.803-.651.89-.088.085-.11.446.143.6l.232.002c.615.007.812.195.55.7-.071.14-.24.361-.193.406l.274.26c-.083.3-.441.495-.797.436l-.16-.414-.064-.165c-.88-.076-.854.161.063.527l-.359.739-.189.39c-.144.454-.13.948.035 1.096.166.15.497.91.262 1.195-.235.281-1.348.676-1.365.941l.11.185.213.353c.179.454.172.685-.015.513-.188-.172-.925-.33-1.141-.247-.216.082-1 .073-1.269.005-.27-.068-1.033.09-.898.2.134.108.632.542.851.691.221.15.924-.226 1-.233.08-.007.231.187.19.497-.034.252.708.083 1.103-.011l.153-.036.05-.01c.215-.038.56.233.185.403-.376.17-1.408.477-1.488.317-.082-.16-.5-.39-.623-.369-.124.02-.63.936-.835.918-.208-.02-.879.34-1.045.845l.2.507c.185.476.448.78 1.04.832l.115.011c.146.135.102.49-.098.786-.199.295-1.155.868-1.267.995-.113.129-.09.638-.229.669-.138.034-.259.335-.305.373-.047.041.053.287.285.493.234.203.737 1.1.704 1.625l-.255.29c-.701.798-.535 1.212.46 1.695l.768.375c-.496.543-1.064 1.26-1.26 1.59-.198.332-.799.753-.252.791l-.072.744-.03.307.054.422.059.46.077.6.292.252.349.301c-.115.366-.34 1.013-.504 1.438l.347.436.86 1.078c-.727.452-1.344.841-1.374.866-.03.027.493 1.062 1.371 2.118l.645 1.054.184.3c-.359-.097-.697-.183-.756-.19-.054-.01-.377.088-.582.23-.206.141-.95.487-1.125.507-.174.02-.993.158-1.383.348l-.374.165-.45.197c-.523-.08-1.816.1-2.874.4-1.06.3-4.492.524-5.079.68l-.546.075-.561.075c-.59.142-2.073.29-3.295.328l-1.123.006-.574.003c-.571.214-1.37.737-1.779 1.159l-.524-.69c-.072-.094-.992.218-1 .193-.276-.733-.827.538-1.22-.147l-.135-.237c-.593.372-1.304.61-1.578.53l-.058.044-.548.44c-.704-.069-1.51-.002-1.789.148-.278.151-1.424-.168-1.708-.116-.286.05-1.64.254-2.365.25-.726 0-2.652.514-2.843.349-.19-.167-1.375.332-1.92.513l-.432-.104-.737-.183c-.754.12-1.734.256-2.179.305-.147.016-.36.06-.579.108l-.263.055c-.348.072-.658.124-.702.054-.083-.133-.855.071-1.275.401-.42.328-2.111-.15-2.493.02l-.135-.09-.604-.407c-.502.325-1.468.522-2.146.44l-.543.15-.556.156c-.521-.16-1.465-.272-2.096-.25l-.581.076-.546.072c-.583.178-1.453.102-1.933-.169l-.641.316-.462.228c-.69-.034-1.996.068-2.904.224l-.915-.24-.608-.16c-.819.231-1.7.452-1.957.49-.257.037-1.12-.22-1.366-.106-.246.113-1.101.073-1.673.057-.57-.018-2.039.294-2.094.169-.056-.126-.212-.138-.23.233-.019.371-1.173-.314-1.409-.323-.237-.007-1.283.038-1.777.106-.19.025-.503.013-.838-.008l-.405-.027c-.402-.028-.774-.05-.937-.017-.355.072-1.647-.126-2.109-.192-.463-.068-2.116.03-2.609-.065-.493-.096-1.802.58-2.024.607-.224.025-.917-.176-1.186-.15-.161.017-.509.003-.888-.021l-.384-.027-.37-.028c-.587-.049-2.287-.198-2.496-.198-.208-.001-.73.2-.897-.037-.166-.239-1.573.03-2.031.088-.457.059-2.109.186-2.743.523l-.78-.51-.569-.376c-.938-.023-2.365.128-3.172.338l-.817-.321-.123-.047c-.358.389-1.004.468-1.434.18-.432-.29-2.551.25-3.484.352-.932.1-3.438-.514-3.572-.543-.135-.029-1.05.138-1.91.262l-.812-.274-.475-.162c-.276.536-.804.805-1.171.603-.369-.205-1.385-.497-1.617-.294-.231.204-1.133.681-1.324.466-.193-.217-1.176-.53-1.97-.454l-.543.239c-.617.267-1.175.208-1.65-.05l-.537-.293c-.418.251-.96.377-1.202.285-.242-.093-1.113-.301-1.36-.35-.247-.046-1.081.164-1.37.352-.289.19-1.246-.002-1.501.077-.258.08-1.289-.023-1.608-.032-.317-.009-1.182-.185-1.207-.386-.027-.202-.204-.764-.326-.692-.12.074-.46.093-.54-.086-.077-.176-.604-.308-.87-.194l-.144.329c-.118.267-.686.369-1.025.58-.968.605-.993.609-2.016-.109l-.16-.111c-.228-.118-.589-.077-.801.091-.214.165-1.118.49-1.415.252-.297-.237-1.176-.743-1.217-.533-.043.21-.518.812-.963.86-.444.047-2.729-.164-4.217.142l-1.445-.495-.448-.152c-.76.434-1.504.608-1.652.387-.146-.222-.837.196-.917.268-.078.07-.757.095-1.445.084-.266-.004-.726-.058-1.203-.125l-.409-.06c-.608-.093-1.163-.192-1.292-.222-.26-.061-1.227.303-1.543.493-.314.186-1.885.12-2.537.583l-.764-.642-.455-.382c-.538.16-1.238.149-1.556-.024-.32-.172-1.26.542-1.601.592-.339.052-1.357-.27-1.392-.462-.035-.192-.515-.581-.95-.216l-.317.316-.367.362c-.417-.158-.917-.208-1.11-.11-.197.098-.821.245-.856.037-.035-.207-.22-.278-.339.281l-.744-.303-.388-.158c-.328.095-.788.205-1.025.244-.236.038-1.116-.314-1.4-.25-.284.064-1.282-.012-1.59-.202-.31-.19-1.41-.084-1.9-.218l-.428-.085c-.182-.036-.572.237-.606.196-.367-.43-.541-.058-.835.066-.136.056-.447-.246-.7-.342-.046-.017-.273.183-.276.281l-.002.092c.164.104.246.236.183.295-.064.061-.374.024-.593-.06-.218-.085-1.133-.02-1.551.145l-.379-.002c-.591-.002-1.41-.402-1.722-.18l-.608.424c-.491-.253-1.107-.434-1.372-.405-.265.028-1.13.344-1.365.516-.232.174-.446-.597-.484-.635-.04-.04-.588-.009-1.213.058-.626.066-2.642.272-3.097.315-.455.041-1.729-1.081-1.895-.918-.166.161-.563.95-1.258 1.031-.698.083-3.355-.746-4.483-1.056l-.986.837-.27.23c-.682-.13-1.384-.317-1.563-.414-.178-.1-.907.064-1.206-.085-.3-.15-1.294.25-1.448.271-.156.025-1.031-.03-1.59-.102-.562-.072-2.847.12-3.862.33l-.854-.588c-.021-.015-2.069.457-2.095.48-.107.09-.198.242-.32.268l-.52.105c-.48-.24-.836-.602-.793-.807.044-.204-.104-.789-.302-.789s-.616.158-.465.35l.018.206.025.26c-.01.393-.44.623-.955.508l-.448-.006-.359-.005c-.378.108-1.126.226-1.659.269-.533.041-2.102-.269-2.418-.136-.315.132-1.363-.158-1.662-.002-.297.156-1.298-.113-1.461-.032l-.166.023c-.78.108-1.488.088-2.302-.16l-.71-.217c-.732.016-1.505.024-1.988.025h-.232l-.164-.001c-.103-.003-.207-.081-.314-.168l-.13-.104c-.177-.132-.363-.215-.57.03l-.206.256-.113.14c-.11.163-.641.396-1.18.522-.537.124-2.15-.486-2.419-.54-.27-.056-.814.002-.996-.086-.181-.086-.937.014-1.17.045-.23.032-1.248.09-1.753.032-.503-.056-1.822-.4-1.845-.491-.025-.092-.31.107-.593.634l-.862-.457c-.237-.125-.882.486-1.373.547l-.427.054c-.506-.204-1.303.005-1.773.468l-.718-.55-.408-.314c-.673-.266-1.324-.334-1.448-.151-.125.185-.708.642-.886.414-.177-.226-.851-.452-1.184-.106l-.31.158c-.178.09-.716-.025-.72-.07l-.076-.882c-.865-.25-1.617-.226-1.672.05-.053.276-.54.784-1 .698l-.37.098c-.287.076-.482.323-.516-.127-.037-.477-.434-.59-.72-.373-.8.613-1.71.2-2.552.325l-.584.088c-.648.093-1.27.174-1.382.179l-.103-.016-.7-.117c-.956-.165-1.48-.39-1.167-.5.314-.111-.327-.69-.383-.877-.057-.187-.439-.377-.464.023-.024.404-.348 1.383-.662 1.232l-.21-.172-.248-.204c-.246-.404-.806-.533-1.244-.289-.44.244-1.656.436-1.814.13-.157-.304-.883-.85-1.224-.451l-.003.321-.01.95c-.568.036-1.491-.046-2.05-.186-.557-.138-2.175.082-2.288.038-.112-.047-.669-.223-.963-.323-.295-.097-1.592-.015-2.222.2l-.408-.145-.4-.143c-.254-.55-.75-.866-1.098-.696-.35.167-1.134.721-1.098.868l-.013.136-.012.12c-.076.128-.235.21-.352.182-.118-.025-.554-.38-.8-.64-.244-.264-1.28.29-1.442.306-.159.014-.853-.099-1.189-.188l-.036-.142-.123-.472c.443 0 1.126-.035 1.516-.082.39-.045.566-1.006.186-1.074-.38-.067-1.506-.01-1.511.305l-.163.288c-.197.355-.535.893-.843.911-.854.047-.181-.735-.538-1.025l-.052-.042c-.083-.048-.43.257-.772.68-.344.421-2.146.409-2.707.443-.561.036-1.174-.983-1.343-.603-.17.382 1.04.662 1.112.721.073.063.11.404-.08.614l-.199.027-.252.032c-.298-.119-.935-.569-1.415-1l-.118-1.529c-.017-.204-.606-.574-.634-.552-1.012.733-1.078.335-1.08-.137v-.271c-.002-.11-.01-.213-.036-.295l-.017-.056c-.154-.116-.306.086-.339.449-.033.36-.378 1.024-.702.733-.322-.289-.819 1.012-.928 1.26-.108.25-.613 1.02-.813 1.053-.199.035-1.311-.035-2.153.018l-.758.04-.16.007c-.175.075-.321.022-.326-.118-.004-.138.023-.474.011-.734-.01-.262.592-.818.932-.774l.27.06.25.056c.224.187.72.427 1.104.533l.374.05c.18.021.506-.068.556-.18l.206-.446c.174-.507.61-.93.968-.938l.115-.152c.257-.346.255-.884.571-1.144l.598-.497c-.344-.423-.8-.805-1.016-.848-.216-.045-.884.253-.884.78s-.437 1.89-.928 1.906l-.294.364c-.366.448-.718.497-1.264.091l-.277-.204c-.532.27-1.174.86-1.428 1.313-.253.452-1.541.868-1.344.575.198-.294.849-1.162.967-1.355.12-.192-.597-.694-.726-1.015l-.193-.146-.465-.353c-.294-.493-.632-1.04-.755-1.221-.122-.183-.733.416-.905.712l.006.27.004.17c.053.222-.08.786-.296 1.258-.216.472-.276 1.878-.359 1.906-.084.033-.378-.014-.47-.168-.09-.15-.566-.687-.777-.91-.21-.22.764-.753.88-.937.113-.183.107-.493-.264-.25-.37.243-1.45-.455-1.684-.389-.234.067.025.868.122 1.126l.034.24.035.246c-.015.259-.538.388-1.16.29l-.509.026-.086.004c-.081.563-.264.954-.405.868-.141-.088-.889-.054-1.342.082l-.013-.025-.274-.518c.475-.077.81-.31.745-.517-.063-.204-.52-.661-.803-.35-.284.313-1.319 1.07-1.74 1.07-.423 0-1.577-.033-1.582-.069-.001-.04.223-.163.508-.193.286-.03 1.115-.4 1.116-.745 0-.342 1.194-.737 1.42-.78.224-.045.879-.306.97-.436l-.035-.091c-.041-.113-.242-.29-.31-.27-1.141.33-2.265.722-3.498.675l-.828-.03c-.4.56-.895 1.108-1.101 1.217-.205.112-.643-.473-.746-.548-.101-.074-.584-.312-.807-.407-.22-.094-.754-.45-.624-.563.13-.113.62-.347.803-.262l.053.122.291.649c.634-.102 1.262-.26 1.397-.348.133-.09.373-.569.367-.8-.005-.231-.902-.647-1.204-.697l-.019-.087c-.264-1.318-1.057-.57-1.208-.12-.268.81-1.136.879-1.668 1.313l-.473.387c-.312.502-.628.702-.703.443l-.036-.238-.068-.429c-.56-.237-1.397-.64-1.858-.895l-.083-.308c-.205-.762-.74-.787-1.435-.782-.3.002-.651-.335-.892-.27-.236.062-.34.457-.543.675l-.07.077c-.264.03-.272.173-.02.316.253.145.718.664.505.852-.212.19-1.783-.493-1.597-.717l.088-.221c.264-.653-.093-1.035-.854-.773-.598.205-.759-.26-1.126-.294l-.465-.045c-.55.043-1.586.24-2.303.441l-.392-.206-.495-.256c-.45.053-1.13.202-1.511.33-.384.127-1.71-.271-2.005-.332-.294-.061-1.04.05-1.41.02-.183-.016-.562-.043-.936-.031l-.079.003.057.034c.218.146.47.4.592.562l.05.072c.021.034-.585.05-1.588.052h-.39l-.022.015c-.079.025-.19.01-.305-.01l-.024-.006H111.792l-.047-.001.041-.01.098-.026-.089-.01c-.056-.001-.098.01-.117.04l-.003.005h-.171l-.025-.001-.002-.019c-.002-.038.001-.087.01-.148v-.005c-.105-.006-.206-.02-.302-.043l-.047-.014-.036.013c-.127.047-.266.113-.384.173l-.072.037h-.072l-.666-.007-.058-.002-.02-.019c-.048-.046-.092-.096-.138-.146l-.02-.023-.393.105c-.6-.08-1.552-.135-2.119-.122-.217.005-.586.062-.995.14l-.048.009.092.003 1.155.02.007-.001c-.023.009-.042.02-.06.035-.181.149-.83.34-1.06.118l-.232-.155-.104.021c-.59.121-1.218.273-1.58.374-.125.035-.3.048-.507.047l-.215-.006.044-.022c.18-.086.615-.24.8-.193l.057.027c.145.126.59-.102.716-.224.018-.017.04-.033.063-.048l.018-.01-.271-.005-.779-.015-.387-.009-.282-.006.097-.056c.03-.04.08-.068.143-.088l.035-.008-1.422.031-.064-.034c-.117-.065-.227-.133-.321-.2l-.031-.014.213-.009c.986-.044 2.19-.085 3.436-.12l.682-.019.341-.008.682-.017c1.131-.025 2.228-.044 3.156-.052l.119-.001.011-.155c.44-.211.636-.468.435-.566-.2-.1-.847-.192-1 .014-.152.208-.825.717-.816.215l-.024-.242c-.011-.116-.118-.328-.147-.323l-.367.052c-.397.08-.641-.165-.545-.543l-.651.16-.123.03c-.11.119-.535.104-.948-.03-.414-.137-1.996-.142-2.453-.119-.458.022-1.908-.591-2.288-.547-.379.045-1.385.233-1.533-.157-.15-.393-1.887-.63-2.043-.589l-.023-.028-.809-1.082c-1.431-.165-2.715-.33-2.851-.373-.136-.04-.782-.02-1.292-.055-.51-.038-2.612.091-3.53.165l-.183-1.02c-.019-.112-.382-.302-.459-.262l-.526.27c-.533-.211-1.084-.529-1.226-.7-.14-.177-1.06-.507-1.331-.627-.273-.122-1.105-.355-1.22-.319-.114.038-.493-.075-.582-.342l-.173-.173c-.096-.093-.43-.107-.583-.035-.594.277-1.255.328-1.68.351-.92.048-.47-.296-.419-.687.006-.048-.02-.098-.056-.148l-.056-.075c-.103-.134-.176-.255.293-.308.336-.037.668-.17.975-.308.347-.154.287-.316.022-.563l-.288-.266c.293-.24.862-.72 1.269-1.067.407-.347.898-1.685.45-1.755l-.327.037-.384.044c-.407.138-1.038.104-1.4-.08-.362-.182-.275-1.746-.138-2.367.138-.622.449-2.28.39-2.3-.054-.022-.497.249-.818.61l-.435-.596-.22-.303c.082-.287.338-.798.569-1.135l-.404-.165-.214-.088c-.498.24-.796.181-.658-.13l.029-.26.076-.718c-.354-.703-.676-1.535-.712-1.85-.039-.313.415-1.348 1.086-1.633.669-.287.664-1.926.176-1.795l-.284.208-.303.223c-.347.202-1.018-.133-1.49-.748l.247-.522c.08-.169.071-.373.172-.53.241-.376.523-.729.786-1.095.294-.412.634.53.978-.037l.098-.164c.41-.079.364-.256-.1-.398l-.021-.152c-.035-.253.192-.563.387-.798.103-.124.393-.113.56-.215.401-.246.52-.99.124-1.1-.492-.138-.623-.312-.806-.697l-.096-.203c-.696-.068-.628-.333.15-.586.778-.253 2.874-1.318 3.847-.745l1.184-.175c.234-.034.734.427.832.73l.243.75c.568-.218.872-.693.677-1.057l.035-.307c.106-.93.286-1.86.51-2.772l.051-.205c.313-.168.706-.365.876-.432.152-.06.506-.505.798-.607l.107-.02-.06-.001h-.132c-2.669-.016-31.969-.14-31.865-.204.112-.064.47-.385.6-.52.13-.133.75.371.847.454.094.082.614.186.657-.183.047-.368.452-1.004.826-.773.373.231 1.4-.264 1.323-.339-.076-.073-.09-.377.14-.51l.126.051c.523.2 1.126.954 1.297-.251l.003-.025c.161-.006.556.068.877.163.32.097 1.363-.289 1.666-.307.3-.018 1.243.063 1.705.063.462-.002 1.25-.757.922-.904-.33-.145-1.038-.936-.86-1.436.177-.5-1.636-1.919-1.482-1.966.158-.044.326-.485-.15-.826l.01-.287.026-.646c-.477-.014-1.047-.192-1.267-.396l-.152-.213-.338-.481c.216-.55.226-1.47.021-2.04l-.126-.54-.04-.17c.072-.223.527-.182 1.012.094.483.274 1.982-.219 2.022-.312.04-.091-.114-.455-.423-.599l-.145.075-.334.174c-.431.23-.714.228-.629-.003l.068-.214.07-.222c.066-.247.025-.416-.091-.373-.118.041-.63.091-.879.016-.25-.073.244-1.153.437-1.684l.684-.13c.135-.028.379-.087.377-.117l-.108-1.218c1.081-.47 1.734-.986 1.451-1.148-.282-.163-1.375.045-1.55-.003-.073-.02-.338-.102-.695-.22l-.327-.109c-.46-.155-1.002-.346-1.478-.534l-1.058.187c-.475.082-.531-.172-.659-.54l-.19-.549c-.298.348-.898.524-1.331.398-.435-.127-1.78-.692-2.048-.921l.035-.043.372-.454c-.232-.454-.511-.91-.618-1.01-.106-.104-.465-.25-.558-.1l-.126.095-.186.142c-.237.118-.719.319-1.07.44-.351.123-1.46.333-1.637.18-.174-.154-.538-.83-.355-1.11.181-.276 1.5.178 2.021.19l.081-.296c.088-.317-.192-1.03-.34-1.034l-2.33-.092c.306-1.422.28-2.622-.056-2.668-.336-.047-.914.61-1 .53-.088-.077-.339-.303-.369-.328-.028-.027-.217-.335-.354-.63-.136-.293.326-1.294.48-1.534l.045-.232.042-.215c-.06-.25-.292-.43-.517-.4l-.2.042-.162.034c-.172.054-.365-.03-.425-.19l.058-.076.312-.409c.537-.61.474-.925-.139-.703l-.344.026-.654.048c-.747-.02-1.397-.244-1.441-.5l.013-.183.138-1.881c-.89-.78-1.74-1.476-1.887-1.55l-.045-.097-.18-.394c.062-.468-.104-1.25-.366-1.736l-.379-.138c-.953-.344-.933-.958-.885-1.65l.018-.26c-.008-.49-.498-.689-1.087-.445l.387-.63c.358-.582-.288-.568-.479-.804-.053-.067-.416.747-.604-.007L44 29.378l.66-.38c.064-.04-.114-.642-.545-1.253l.156-.696c.04-.181.177-.36.157-.527l-.021-.196c-.135-.204-.1-.339.075-.298.176.042.923-.07 1.238-.344.318-.272-.146-1.313.08-1.393l.057.045c.59.468 1.109.557 1.622-.1l.442-.567c.476.401.903.552.948.337.047-.216.79-.958 1.553-1.173l.521.974.27.503c.733-.56 1.211-1.06 1.064-1.104-.146-.045-.515-.287-.47-.43l.033.001c.352.015.706.049 1.056.095l.163.02c.173.06.385-.041.47-.219.086-.176.687-.082.745-.204.059-.124.396-.466.509-.251.114.213.773.473 1.104-.104l.259-.275.143-.147c.297-.04.857.065 1.24.237.386.172 1.789-.224 2.068-.041.279.18 1.1.593 1.408.07l.264-.36.26-.356c.482-.034 1.095.058 1.36.205.267.148.805-.569 1.125-.558.319.01 1.229.213 1.349.31.117.097.674.242.807-.055.13-.298.745-1.026 1.054-.911.31.11 1.056-.05 1.299-.147.244-.1.938.195 1.061.104l.017-.094.061-.344c.286.048 1.041.328 1.679.626l.08-.94.006-.072c.138-.062.772-.24 1.41-.396.636-.156 2.775.2 3.33.172l.4.104c.412.11.684.601.707-.208.002-.084.477-.245.492-.226.5.639 1.252.122 1.393-.046.454-.544 1.09.195 1.576-.318l.185-.193c.782.247 1.516.47 1.63.495.117.023.731-.309 1.161-.664.432-.357 1.913.269 1.995.228v-.038l-.034-.96c.721.198 1.795.105 2.39-.21l.515.74.254.366c.535-.25 1.24-.576 1.57-.729l.34-.073.108-.025c.11-.036.49-.043.842-.014.353.03 1.592-.08 1.96-.008.37.072 1.291-.335 1.382-.233.093.102.48.352.562.219l.084-.11.092-.118c.114-.125.239-.149.277-.054.037.097.223.42.317.47l.088-.023.663-.169c.75-.14 1.473-.308 1.607-.38l.097-.095.674-.683c.511.631 1.036.99 1.167.798.132-.192.565-.585.695-.48.103.081.299-.147.39-.61l.008-.053.142-.011.248-.021.611.598.168.163c.498-.092 1.144-.147 1.44-.124.292.021.973.172.993-.061.02-.233 1.023-.265 1.18-.099.131.142.35-.054.397-.556l.005-.094h-.097c-.115-.014-.274-.052-.45-.105l-.109-.035.236-.016c.591-.043 1.164-.083 1.69-.118l.137-.01.07-.028c.307-.122.583-.221.738-.264.28-.077 1.664-.194 2.403-.196l.674-.021.198-.007c.212-.095.418-.033.457.138.038.172.835.079.948-.061.113-.138.6-.432.779-.276.179.157.8.416 1.052.286.253-.127 1.337-.496 1.85-.534l.168.23c.369.504.799-.497 1.202.14l.172.272c.63-.296 1.291-.427 1.47-.294.175.136.717.41.766.285.05-.127.278-.425.394-.382.116.043.498-.012.59-.217.09-.206 1.572-.14 2.449-.317l.963.276c.774.222 1.819.312 2.747-.273l.445-.28c.842.146 1.617.361 1.72.478.105.118.613.163.87-.221.256-.386 1.43.27 1.512.12.08-.15.412-.504.46-.258.046.246.309.529.498.204.19-.322 1.57.155 2.139.006l.676.104.888.136c1.073-.386 2.011-.588 2.086-.45.073.138.36.418.445.262.086-.158.472-.562.686-.581l.078.068.633.56c.845-.088 1.99-.123 2.545-.078.555.043 2.292-.219 2.699.11l.48-.6c.081-.1.68.18 1.033.167l1.043-.03c1.146-.077 2.75-.265 3.562-.418l.608.635.122.127c.399-.073 1-.13 1.339-.125.339.005 1.169.186 1.204-.022.036-.206 1.144-.093 1.53.32l.599-.517.194-.167c.542.106 1.184.223 1.428.255.246.034 1.141.142 1.47.147h.299c.226 0 .46.038.67-.01.235-.053.436-.22.67-.264l.14-.026c.182.087.54.083.797-.009.257-.091 1.048.203 1.441.488l-.013-.746v-.005c.239-.006 1.09.22 1.893.5l.74.032.58.024c.654-.284 1.31-.572 1.457-.642.146-.072.684.265.915.7l.705-.232c.367-.122 1.033-.24 1.17-.086.29.325.481.221.667.07l.125-.105c.146-.12.301-.217.51-.112l.464.235c.661.03 1.51.152 1.885.27l.118-.102.708-.62c.757.31 1.497.46 1.644.335.147-.13.717-.359.868-.163.15.194.601.744.631.742.028-.002.477-.206.885-.4.409-.193 2.11-.218 2.652-.141.545.079 2.001-.067 2.422.098.421.165 1.5-.44 1.871-.23l.012-.014 1.026-1.25c1.36.53 2.745.955 3.079.947.334-.009.956-.123.915.225-.04.35 1.26-.329 1.594-.465.336-.136 1.06-.032 1.307.018.247.05.885-.13.943-.007.058.122.357.434.474.283.116-.15.878-.522 1.458-.518l.478.246 1.428.466.327-.219c.429-.289.839-.436.914-.323.073.113.65.524 1.01.737l.761-.656.087-.075c.187.003.516.118.729.256.212.138 1.523.084 2.326-.24l.065-.06.302-.284c.38.147.6.733.489 1.303l.974-.557.74-.424c-.05.535-.035.664.036.289.071-.377 1.14.197 1.197.183.057-.016.535-.097.935-.187.402-.09 1.9.35 2.302.449.402.098 1.393-.406 1.541-.275.15.13.565.477.6.488.034.01.234-.125.41-.28.174-.154.956-.33 1.268-.222l.298.022c.172.014.48-.27.53-.23l.503.407c.516-.208 1.454-.204 2.085.007l.588.181.234.072c.291-.002.67-.111.842-.24.171-.13.894-.163 1.121-.316.228-.152 1.673.181 2.38.226l.66.047.562.037c.591.165 1.17.208 1.286.094.116-.117.803-.35 1.268-.27l.357.157c.376.165.688.685.71-.169.001-.025.275-.07.416-.059.867.06 1.759.278 2.59.158l.642-.092c.506.21 1.033.395 1.172.415.14.017.772-.108 1.123-.196.349-.091 2.51.07 3.11.253.598.186 2.259-.71 2.642-.696.386.014 1.804-.168 2.289-.387.486-.217 1.612.71 1.74.694.13-.018.85-.49 1.158-.13l.317.065c.33.065.802-.33 1.1-.24l.622.185c.329-.332.799-.59 1.043-.572l.153.096.284.185c.262.257.606.353.763.215.157-.138.578-.31.608-.093.028.215.983.253 1.14.08.156-.17.841-.396.99-.198.145.195.639.742.735.735l.033-.063c.477-.891 1.192-.152 1.784-.193l.285-.022c.417-.138.909-.217 1.093-.178.186.042.69.088 1.02.221.328.131 1.743-.256 2.343-.091l.664-.15c.367-.08.872.272 1.219.171l.594-.172c.588.113 1.493.242 2.011.292l.484-.079.847-.138c.95-.075 1.855-.15 2.009-.167.154-.016.653.321.888.612.236.29 1.29-.167 1.467-.034.176.134.735.39.853.273l-.021-.088c-.067-.268-.324-.73-.286-.746l.557-.26c.124.405.348.778.496.826.15.049.571-.097.72-.217.15-.123.677-.34.848-.199.17.14.649.018.687-.574l.869.393.026.013c-.138.305.215.477.782.385.568-.093 1.925.605 2.048.495l-.003-.097-.02-.677c.52.125 1.051.33 1.182.457.13.127.571.384.608.167.038-.22.425-.553.784-.29.358.263 1.823-.15 2.223-.159.4-.007 1.447.48 1.528.648.083.17 1.166-.147 1.309-.318.146-.172.925-.34 1.18.278l.773-.194c.386-.096.293-.252.152-.396l-.097-.094c-.126-.122-.215-.223.034-.256l.602-.077c.6.014 1.916.027 3.113.03h1.74c.6 0 1.2-.022 1.797.008l.5.023c.535.092 1.384-.134 1.887-.504l.538.671.322.4c.045-.36.324-.873.621-1.137l.253.282.405.453c.488-.138 1.199-.32 1.58-.405.383-.084 1.641-.316 1.944-.5.302-.187 1.421.335 1.816.36.394.025 1.558.203 1.76.097.203-.104 1.02-.346 1.552-.46l.398-.223.756-.42c.322.497.614.739.647.54.035-.2.502-.707.942-.545.442.161 1.92.574 2.368.574.447.001 2.033-.714 2.891-.736l.713.036c.727.036 1.406-.104 2.104-.082l.48.016c.39-.212 1.07-.27 1.513-.124l.222-.12c.698-.378.904-.206.982.425l.006.054c.39.012 1.282-.377 1.98-.863l1.048.744.106.076c.116.082.22-.115.23-.441.012-.325 1.36.046 1.675.143.315.099 1.44-.002 1.772-.084.333-.083 1.376-.34 1.644-.273.269.067 1.315-.297 1.91-.231.592.066 2.343-.047 2.592.055.249.106.78.544.833.406.055-.137.376-.368.498.03l.183.068.302.113c.39-.048 1.272-.127 1.955-.175l.395-.262.528-.35c.389.205.846.373 1.017.373.169 0 .627-.203.772-.287.144-.084 1.12.145 1.644.271.523.124 2.037-.31 2.174-.353.136-.045.822.756.865.527.045-.233.523-.762.983-.764l.407.027.523.034c.556.247 1.342.39 1.745.317.402-.071 1.65-.453 1.956-.516.306-.065 1.095.262 1.141.047.048-.216.278-.768.412-.757l.067.057c.531.457.978.995 1.881.44l.26-.16c.509.106 1.125.165 1.37.13.247-.033.989.22 1.153.24l.142-.033.54-.118c.59-.138 1.459-.2 1.927-.135l.432.038.332.027c.45-.364.943-.488 1.096-.28.153.212.641.472.864.276.222-.197 1.107-.606 1.342-.36.235.244 1.042.464 1.745.522l.561.096.553.097c.407-.172 1.073-.337 1.48-.364l.354-.174.17-.084c.263.047 1.145-.108 1.96-.343l.802.573.424.303c.807-.045 1.504-.329 1.547-.63.044-.3 1.035-.095 1.277.023.243.119 1.238.192 1.566.259.33.066 1.14-.354 1.208-.32.068.035.362.266.533.406.17.14 1.448.427 1.254.224-.195-.203-.155-.427.42-.154l.62-.623c.262-.26 1.145-.07 1.741-.035l.44.026c.336.298.693.556.794.57.101.019.935.033 1.75.115l.563-.665.09-.106c.789.296 1.36.373 1.267.174-.091-.199-.24-.704-.171-.776.068-.074.648-.188 1.174-.267.528-.08 1.99.405 2.229.276l.111.054.513.252c.615-.028 1.355.08 1.644.237.29.158 1.34-.748 2.005-1.189l.649.244.754.282c.445-.375.867-.689.936-.696.07-.007.34-.083.545-.228.208-.145 1.078.258 1.305.384zm-301.99 98.543l.712.354c.354-.05.95.003 1.563.064l.526.052c.26.025.512.045.737.055l.002-.001-.01.006c-.137.08-.85.219-1.55.344l-.62-.217c-.322-.11-.627-.256-.938-.39-.072-.032-.141-.074-.21-.12l-.137-.096-.069-.047-.006-.004zm-3.797-.22l.03.004c.229.019.614.04 1.12.06l.05.002-.05.062c-.053.068-.108.146-.167.233l-.415.615c-.178-.438-.374-.778-.531-.941l-.037-.035zm11.251.313l.215.003c.629.01 1.24.019 1.821.026l.287.002.051.046c.025.02.05.038.077.054l.057.028-.135-.001h-.137c-.52.003-1.868.236-1.921.103-.033-.08-.152-.2-.282-.251l-.033-.01zm3.119.04l.248.002.31.003.275.001.004.032.011.035-.121.034c-.122.034-.473.03-.847.023l-.137-.004.045-.012c.017-.008.094-.052.2-.107l.012-.007zm-8.007-.135l.089.002.76.017.104.002-.194.113-.168.099c-.134-.034-.308-.1-.488-.183l-.103-.05zm-3.993-.109l.035.002.587.019.181.004-.057.032c-.06.039-.12.09-.185.157-.045.045-.36-.02-.452-.11l-.084-.08-.025-.024zm10.054-.127l-4.252.093.051.005c.369.036.772.11 1.021.12l.009-.001-.068.015c-.03.008-.061.018-.09.03l-.06.03.12.003.555.009-.13-.086-.086-.013.16-.017c.33-.04.695-.103.884-.108l.078.003c.188.025.855.056 1.485.065l.323-.148zm-6.255.136l.115.062.079.038-.286-.006-1.79-.045-.14-.005 2.022-.044zm10.379-.225l-1.025.022-.037.05c-.05.064-.098.109-.141.105-.066-.004-.14 0-.216.009h-.006.016c.035.008.06.025.07.056l.002.052.154.004c.47-.003.952-.146 1.182-.296l.001-.002zm-15.32.14c.408-.47.673-.36 1.088.024l.054.052-.242-.007-.754-.028-.174-.008zm14.494-.39c-.338-.003-.739-.003-1.185 0l-.155.001-.002.028c-.006.078-.002.143.01.196l.007.021.015-.003.062.052 1.049-.023.014-.017c.034-.047.069-.098.104-.143l.053-.063.046-.05zM34.346 82.145c.402-.348.51.026.756.128l.275.114c.325.072.606.304.623.515l-.081.1c-.056.065-.112.139-.169.216l-.172.236c-.203.274-.417.526-.65.542-1.004.07-.232-.805-.642-1.076-.5-.33-.256-.498.06-.775zm5.788-8.692c.304-.504.65-.602.774-.22l-.034.267c-.07.57.12.9.91.948l.1.005c.126.381-.112.618-.526.528-.416-.092-1.528-1.024-1.224-1.528zm68.334-58.107l-.123.007-.117.048c-.126.051-.255.105-.38.16l-.183.08-.505-.003.841.701c.107.09.693-.256 1.05-.41l.188-.081c.184-.104.956-.37 1.715-.592.245-.07-.869-.017-2.486.09zm-6.692.336l-.008.081-.014.079-.103.008c-.884.07-1.574.127-1.906.156h-.005l.092-.013c.184-.027.429-.07.685-.116l.31-.057.448-.087c.115-.023.283-.039.486-.05l.015-.001zm1.949 0l.056.002-.252.02-1.378.107-.007-.001-.141-.138.202-.004c.477-.01 1.037-.002 1.52.014zm1.755-.506c.22.108.483.214.73.298l.072.023-.061.005-1.205.089-.051.003.023-.019.492-.4z" transform="translate(-830 -1134) translate(0 737) translate(796 389)"/>
                </g>
            </g>
        </g>
    </g>
</svg>
