<svg xmlns="http://www.w3.org/2000/svg" width="42" height="39" viewBox="0 0 42 39">
    <g fill="none" fill-rule="evenodd">
        <g fill="#FCC517" fill-rule="nonzero">
            <g>
                <g>
                    <path d="M173.174 39c2.174 0 4.022-.771 5.543-2.314C180.24 35.144 181 33.095 181 30.54c0-2.203-.696-3.944-2.087-5.222-1.391-1.278-3-1.917-4.826-1.917-.522 0-1.022.044-1.5.132-.478.088-1.022.265-1.63.529-.261-2.644-.022-5.354.717-8.13.739-2.777 1.652-5.31 2.739-7.602 1.087-2.292 2.109-4.054 3.065-5.288L173.435 0c-2.174 2.556-4.044 5.398-5.609 8.527-1.565 3.129-2.76 6.28-3.587 9.453-.826 3.173-1.239 5.949-1.239 8.328 0 3.614.848 6.633 2.543 9.056 1.696 2.424 4.24 3.636 7.63 3.636zm24 0c2.174 0 4.022-.771 5.543-2.314C204.24 35.144 205 33.095 205 30.54c0-2.203-.696-3.944-2.087-5.222-1.391-1.278-3-1.917-4.826-1.917-.522 0-1.022.044-1.5.132-.478.088-1.022.265-1.63.529-.261-2.644-.022-5.354.717-8.13.739-2.777 1.652-5.31 2.739-7.602 1.087-2.292 2.109-4.054 3.065-5.288L197.435 0c-2.174 2.556-4.044 5.398-5.609 8.527-1.565 3.129-2.76 6.28-3.587 9.453-.826 3.173-1.239 5.949-1.239 8.328 0 3.614.848 6.633 2.543 9.056 1.696 2.424 4.24 3.636 7.63 3.636z" transform="translate(-303 -3997) translate(0 3818) translate(140 179)"/>
                </g>
            </g>
        </g>
    </g>
</svg>
