<svg xmlns="http://www.w3.org/2000/svg" width="19" height="15" viewBox="0 0 19 15">
    <g fill="none" fill-rule="evenodd">
        <g fill="#FFF" fill-rule="nonzero">
            <g>
                <g>
                    <g>
                        <path d="M16.656.03H2.32C1.04.03 0 1.07 0 2.35v9.798c0 1.28 1.04 2.32 2.32 2.32h14.332c1.28 0 2.32-1.04 2.32-2.32V2.353C18.977 1.073 17.937.03 16.657.03zm1.26 12.118c0 .695-.565 1.26-1.26 1.26H2.32c-.695 0-1.26-.565-1.26-1.26V2.353c0-.694.565-1.26 1.26-1.26h14.332c.695 0 1.26.566 1.26 1.26v9.795h.005z" transform="translate(-135 -4892) translate(0 4368) translate(135 518) translate(0 6)"/>
                        <path d="M11.965 7.127l4.64-4.161c.216-.196.236-.53.04-.75-.197-.216-.53-.236-.75-.04L9.496 7.92 8.248 6.805c-.004-.004-.008-.008-.008-.012-.028-.027-.055-.05-.086-.074l-5.08-4.546c-.22-.196-.554-.177-.75.043-.196.22-.177.554.043.75l4.695 4.196-4.675 4.377c-.212.2-.224.534-.024.75.106.11.248.169.389.169.13 0 .259-.047.361-.141l4.746-4.44 1.288 1.15c.102.09.227.133.353.133.126 0 .255-.047.353-.137l1.323-1.185 4.719 4.483c.102.098.235.145.365.145.141 0 .279-.055.385-.165.2-.212.192-.55-.02-.75l-4.66-4.424z" transform="translate(-135 -4892) translate(0 4368) translate(135 518) translate(0 6)"/>
                    </g>
                </g>
            </g>
        </g>
    </g>
</svg>
