<svg xmlns="http://www.w3.org/2000/svg" width="68" height="68" viewBox="0 0 68 68">
    <g fill="none" fill-rule="evenodd">
        <g>
            <g>
                <g>
                    <g>
                        <g transform="translate(-199 -1821) translate(0 1567) translate(140 255) translate(13) translate(47)">
                            <circle cx="33.363" cy="33" r="33" stroke="#FFF1BE"/>
                            <circle cx="33.363" cy="33" r="27.5" fill="#FFF1BE" fill-opacity=".8"/>
                            <path fill="#DB0812" fill-rule="nonzero" d="M57.934 17.925c-.264-.152-.533-.287-.808-.408l2.737-4.718-1.566-.9-2.942 5.073c-1.18-.219-2.402-.174-3.595.144-.279.074-.552.162-.817.263l1.51-2.604-1.566-.9-1.513 2.61c-.233-1.465-.865-2.86-1.85-4.009L50.467 7.4l-1.566-.9-2.737 4.719c-.24-.176-.493-.341-.758-.493-.432-.249-.985-.101-1.235.33l-1.808 3.117c-.839 1.445-1.177 3.045-1.069 4.597-.133-.087-.269-.17-.408-.25-.433-.25-.986-.102-1.235.328l-1.808 3.118c-.839 1.446-1.177 3.045-1.07 4.597-.132-.087-.268-.17-.407-.25-.433-.25-.986-.102-1.235.329l-1.808 3.117c-.193.331-.36.673-.502 1.023-.123-.281-.263-.558-.42-.828l-1.808-3.118c-.25-.43-.802-.578-1.235-.329-.14.08-.275.164-.408.25.108-1.552-.23-3.15-1.07-4.596l-1.807-3.118c-.25-.43-.803-.578-1.235-.33-.14.08-.275.164-.408.251.108-1.552-.23-3.15-1.07-4.597l-1.807-3.117c-.25-.43-.803-.578-1.235-.33-.265.153-.518.318-.758.494l-2.737-4.72-1.566.9 2.944 5.077c-.985 1.15-1.618 2.544-1.85 4.01l-1.514-2.61-1.566.9 1.51 2.603c-.265-.1-.537-.189-.816-.263-1.193-.318-2.416-.363-3.595-.144l-2.943-5.073-1.565.9L8.6 17.712c-.275.12-.545.256-.808.408-.432.248-.58.799-.331 1.23l.642 1.105 1.565-.9-.157-.272c1.262-.505 2.649-.59 3.987-.234 1.633.436 2.997 1.478 3.843 2.935l1.323 2.283c-2.872 1.145-6.238.043-7.829-2.7l-1.566.9c.839 1.445 2.06 2.537 3.465 3.22-.142.07-.283.146-.422.226-.432.249-.58.799-.33 1.23l1.807 3.117c.82 1.413 2.02 2.522 3.46 3.222-.14.07-.28.145-.417.224-.432.249-.58.8-.33 1.23l1.807 3.117c.82 1.413 2.02 2.522 3.46 3.223-.14.07-.28.145-.416.223-.433.249-.581.8-.331 1.23l1.808 3.117c1.505 2.595 4.245 4.048 7.06 4.048.49 0 .982-.044 1.47-.134l5.89 10.286c.16.28.46.454.784.454h4.163c.322 0 .62-.17.781-.448.162-.277.163-.619.004-.897l-2.576-4.5-1.57.891L40.64 58.7H38.56l-5.403-9.437.785-.452h.002l.003-.002.776-.446 3.082 5.383 1.57-.89-1.9-3.32c2.268-.461 4.251-1.869 5.42-3.885l1.809-3.118c.25-.43.101-.98-.331-1.229-.138-.08-.278-.154-.42-.224 1.443-.704 2.649-1.819 3.463-3.222l1.808-3.118c.25-.43.101-.98-.331-1.229-.137-.079-.276-.154-.417-.224 1.273-.62 2.397-1.58 3.224-2.84l-1.514-.984c-1.666 2.542-4.888 3.503-7.645 2.402l1.324-2.283c.845-1.457 2.21-2.5 3.842-2.935 1.338-.357 2.725-.27 3.987.235l-.448.772 1.566.9.932-1.607c.25-.43.102-.98-.33-1.23-.14-.079-.28-.155-.423-.226 1.405-.683 2.627-1.774 3.465-3.22l1.809-3.117c.25-.43.101-.98-.331-1.23zM43.93 15.072l1.324-2.282c2.432 1.903 3.157 5.356 1.565 8.1l-1.324 2.282c-2.432-1.904-3.156-5.356-1.565-8.1zM20.384 25.431c.137-.08.271-.162.403-.248-.022.309-.025.617-.011.924-.26-.166-.53-.317-.81-.452.141-.07.28-.145.418-.224zm4.52 7.793c.137-.08.272-.162.403-.247-.022.308-.025.616-.011.923-.26-.166-.53-.316-.809-.452.14-.07.28-.145.417-.224zm4.52 7.793c.139-.08.275-.164.408-.25-.021.308-.025.619-.01.93-.262-.167-.534-.32-.815-.456.14-.07.28-.145.417-.224zm4.367 5.73l-1.324-2.283c-1.591-2.744-.867-6.196 1.566-8.1l1.323 2.283c1.592 2.743.867 6.196-1.565 8.1zm7.03-13.718c.138.079.277.154.418.224-.28.135-.55.286-.81.452.015-.307.011-.615-.01-.923.13.085.265.168.403.247zM39.41 22.865l1.323-2.282c2.433 1.903 3.157 5.356 1.566 8.1l-1.324 2.282c-2.432-1.904-3.157-5.356-1.565-8.1zm-4.52 7.794l1.324-2.283c1.07.835 1.839 1.988 2.197 3.32.438 1.625.213 3.322-.632 4.78l-.798 1.375-.059-.104-1.808-3.117c-.217-.374-.662-.535-1.06-.407-.082-1.238.204-2.476.835-3.564zm-5.378-2.088l1.324 2.283c.845 1.457 1.07 3.154.633 4.78-.359 1.331-1.127 2.484-2.198 3.32l-1.324-2.283c-.845-1.457-1.07-3.155-.632-4.78.358-1.332 1.126-2.485 2.197-3.32zm-4.52-7.794l1.324 2.284c1.591 2.743.867 6.195-1.566 8.099l-1.323-2.283c-.846-1.457-1.07-3.154-.633-4.78.359-1.331 1.127-2.484 2.198-3.32zm-4.52-7.792l1.324 2.282c1.591 2.744.867 6.196-1.566 8.1l-1.324-2.283c-1.59-2.743-.866-6.195 1.566-8.1zM15.355 29.36l-1.324-2.283c1.262-.506 2.649-.591 3.987-.235 1.633.436 2.997 1.478 3.843 2.935l1.324 2.283c-2.873 1.145-6.239.043-7.83-2.7zm4.52 7.793l-1.324-2.283c1.263-.506 2.65-.591 3.987-.235 1.633.436 2.998 1.478 3.843 2.935l1.324 2.284c-1.263.505-2.65.59-3.987.234-1.633-.436-2.998-1.478-3.843-2.935zm4.52 7.793l-1.324-2.283c1.263-.505 2.65-.591 3.987-.234 1.633.435 2.998 1.477 3.843 2.935l1.324 2.282c-2.872 1.145-6.238.043-7.83-2.7zm16.935-.195c-1.01 1.742-2.802 2.9-4.81 3.115l-.461-.804c1.119-1.304 1.783-2.924 1.923-4.604 1.505-.589 3.184-.578 4.671.011l-1.323 2.282zm4.52-7.793c-1.589 2.74-4.914 3.869-7.83 2.7l1.325-2.283c.845-1.457 2.21-2.499 3.842-2.934 1.338-.357 2.725-.272 3.988.234l-1.325 2.283zm-.916-11.973c.133.087.269.17.408.25.138.08.277.154.417.225-.281.136-.553.288-.814.455.014-.31.01-.621-.011-.93zm9.957-3.614c-1.592 2.744-4.958 3.845-7.83 2.7l1.324-2.282c.845-1.457 2.21-2.5 3.843-2.935 1.338-.357 2.724-.271 3.987.234l-1.324 2.283zM52.528 47.184l-.663 1.112c-.49-.458-.846-1.038-1.027-1.692-.262-.948-.128-1.938.38-2.788l.662-1.11c.444.414.779.93.972 1.508l1.754-.55c-.43-1.286-1.335-2.368-2.546-3.044-.212-.119-.464-.15-.7-.09-.236.062-.437.211-.56.416l-1.18 1.978c-.752 1.262-.953 2.733-.563 4.142.39 1.408 1.324 2.585 2.629 3.314.145.082.303.12.46.12.318 0 .628-.16.799-.446l1.18-1.978c.421-.705.67-1.473.738-2.28l-1.838-.146c-.046.543-.213 1.059-.497 1.534zM11.07 41.026l-2.045-.501c-.212-.052-.437-.021-.625.085-.188.107-.324.281-.379.484-.69 2.58.94 5.218 3.635 5.88l2.044.501c.068.017.136.025.205.025.146 0 .292-.038.42-.11.188-.107.325-.281.38-.484.69-2.58-.94-5.218-3.636-5.88zm2.145 4.7l-1.15-.282c-1.54-.378-2.564-1.716-2.554-3.17l1.149.282c1.54.378 2.565 1.716 2.555 3.17z"/>
                            <path fill="#DB0812" fill-rule="nonzero" d="M51.997 10.665L53.786 10.665 53.786 12.453 51.997 12.453z" transform="rotate(-59.999 52.891 11.559)"/>
                            <path fill="#DB0812" fill-rule="nonzero" d="M12.1 10.858L13.888 10.858 13.888 12.647 12.1 12.647z" transform="rotate(-30.001 12.994 11.752)"/>
                        </g>
                    </g>
                </g>
            </g>
        </g>
    </g>
</svg>
