<svg xmlns="http://www.w3.org/2000/svg" width="18" height="18" viewBox="0 0 18 18">
    <g fill="none" fill-rule="evenodd">
        <g fill="#FFF" fill-rule="nonzero">
            <g>
                <g>
                    <g>
                        <g>
                            <path d="M17.473 13.18c-.679 0-1.23-.616-1.23-1.372v-8.04c0-1.338-1.026-2.427-2.286-2.427s-2.285 1.089-2.285 2.426V15.68c0 .698-.508 1.266-1.133 1.266H7.763c.035-.126.053-.26.053-.397v-3.162c0-.8-.62-1.452-1.383-1.452H4.604c-.212 0-.385-.205-.385-.458V6.524c0-.253.173-.458.385-.458h1.829c.763 0 1.383-.652 1.383-1.452V1.452C7.816.652 7.196 0 6.433 0H3.55C1.593 0 0 1.701 0 3.792v10.416C0 16.3 1.593 18 3.55 18h6.989c1.206 0 2.188-1.041 2.188-2.32V3.766c0-.756.552-1.37 1.23-1.37.679 0 1.23.614 1.23 1.37v8.041c0 1.338 1.026 2.426 2.286 2.426.29 0 .527-.236.527-.527 0-.292-.236-.528-.527-.528zm-10.711.206v3.162c0 .22-.148.397-.33.397h-.71V12.99h.71c.182 0 .33.178.33.397zm0-11.934v3.162c0 .219-.148.397-.33.397h-.71V1.055h.71c.182 0 .33.178.33.397zM1.055 14.208V3.792c0-1.51 1.12-2.737 2.495-2.737h1.117V5.01h-.063c-.794 0-1.44.679-1.44 1.513v4.952c0 .834.646 1.513 1.44 1.513h.063v3.956H3.55c-1.376 0-2.495-1.228-2.495-2.737z" transform="translate(-303 -4890) translate(0 4368) translate(135 518) translate(168) translate(0 4)"/>
                        </g>
                    </g>
                </g>
            </g>
        </g>
    </g>
</svg>
