<svg xmlns="http://www.w3.org/2000/svg" width="67" height="67" viewBox="0 0 67 67">
    <g fill="none" fill-rule="evenodd">
        <g>
            <g>
                <g>
                    <g>
                        <g transform="translate(-399 -1995) translate(0 1567) translate(140 255) translate(213 173) translate(46)">
                            <circle cx="33.5" cy="33.5" r="33" stroke="#FFF1BE"/>
                            <circle cx="33.5" cy="33.5" r="27.5" fill="#FFF1BE" fill-opacity=".8"/>
                            <path fill="#DB0812" fill-rule="nonzero" d="M50.71 12H17.267c-2.64 0-4.78 2.14-4.78 4.78v33.44c0 2.64 2.14 4.78 4.78 4.78h33.441c2.64 0 4.78-2.14 4.78-4.78V16.78c0-2.64-2.14-4.78-4.78-4.78zm2.457 38.22c0 1.358-1.1 2.458-2.458 2.458H17.268c-1.333-.033-2.396-1.124-2.396-2.457V16.779c.032-1.31 1.086-2.363 2.396-2.396h33.441c1.334 0 2.424 1.063 2.458 2.396v33.442z"/>
                            <path fill="#DB0812" fill-rule="nonzero" d="M46.013 18.84H21.964c-1.994 0-3.612 1.58-3.612 3.526V25.3c.003 5.989 4.854 10.905 10.985 11.132h9.303c6.131-.227 10.983-5.143 10.985-11.132v-2.934c0-.935-.38-1.831-1.058-2.493-.677-.66-1.596-1.032-2.554-1.032zM33.345 34.103h-1.422v-.097c.337-.527.884-.895 1.509-1.014.18-.061.367-.094.557-.097h.111c.44 0 .87.126 1.237.363.319.2.583.473.767.796l-2.759.049zM47.213 25.3c.025 4.704-3.759 8.588-8.573 8.802-.192-.745-.58-1.428-1.126-1.98l2.474-3.84c.18-.524-.026-1.1-.502-1.4-.476-.299-1.1-.244-1.514.133l-2.474 3.827c-2.084-.68-4.374.112-5.555 1.92-.272.413-.476.865-.606 1.34-4.804-.214-8.584-4.084-8.572-8.778v-2.958c0-.666.553-1.207 1.237-1.207h1.237v2.378c-.126.488.072 1 .496 1.287.423.286.984.286 1.408 0 .423-.286.62-.799.496-1.287v-2.342h2.4v2.342c.128.55.628.94 1.206.94.577 0 1.077-.39 1.206-.94v-2.342h2.3v2.342c.129.55.63.94 1.207.94.577 0 1.078-.39 1.206-.94v-2.342h2.4v2.342c.128.55.629.94 1.206.94s1.078-.39 1.206-.94v-2.342h2.4v2.342c0 .667.554 1.208 1.237 1.208s1.237-.54 1.237-1.208v-2.342h1.237c.683 0 1.237.54 1.237 1.208l-.111 2.897z"/>
                        </g>
                    </g>
                </g>
            </g>
        </g>
    </g>
</svg>
