<svg xmlns="http://www.w3.org/2000/svg" width="68" height="68" viewBox="0 0 68 68">
    <g fill="none" fill-rule="evenodd">
        <g>
            <g>
                <g>
                    <g>
                        <g transform="translate(-599 -1822) translate(0 1567) translate(140 255) translate(413 1) translate(47)">
                            <circle cx="33" cy="33" r="33" stroke="#FFF1BE"/>
                            <circle cx="33.5" cy="33.5" r="27.5" fill="#FFF1BE" fill-opacity=".8"/>
                            <path fill="#DB0812" fill-rule="nonzero" d="M28.525 11.063c-1.849 3.285-5.83 9.866-11.712 17.04-7.793 9.506-3.052 23.886 8.885 26.82 3.039.746 6.252.746 9.291 0 3.564-.877 6.641-2.816 8.918-5.611 3.623-1.854 6.021-5.372 6.423-9.435.052-.525.112-1.071.178-1.624.062-.524-.312-1-.836-1.062-.524-.063-1 .311-1.062.835-.067.566-.128 1.125-.181 1.663-.773 7.803-10.025 12.074-16.618 6.458l2.143-2.142c1.845 1.515 3.999 2.186 6.203 1.987.525-.047.913-.512.866-1.037-.048-.526-.514-.913-1.038-.866-1.598.144-3.214-.303-4.672-1.443l2.748-2.748c1.531 1.21 3.299 1.737 5.102 1.575.525-.048.913-.512.865-1.038-.047-.526-.513-.912-1.037-.866-1.206.11-2.428-.202-3.565-1.036l2.705-2.705c1.122.812 2.36 1.127 3.588 1.016.526-.047.913-.512.866-1.037-.047-.526-.513-.912-1.038-.866-.686.062-1.39-.09-2.04-.489l3.013-3.013c.373-.373.373-.978 0-1.35-.374-.374-.979-.374-1.352 0L42.155 33.1c-.375-.612-.554-1.311-.489-2.04.048-.526-.34-.99-.865-1.038-.526-.048-.99.34-1.038.865-.112 1.244.214 2.48 1.017 3.588l-2.706 2.706c-.836-1.142-1.144-2.364-1.036-3.565.048-.526-.34-.99-.866-1.038-.528-.048-.99.34-1.037.866-.16 1.777.35 3.551 1.574 5.102l-2.748 2.747c-1.143-1.463-1.586-3.08-1.442-4.672.047-.525-.34-.99-.866-1.037-.526-.047-.99.34-1.038.865-.196 2.177.456 4.338 1.987 6.203l-2.142 2.143c-2.934-3.444-3.228-7.702-1.506-11.143 1.544-3.087 4.522-5.134 7.964-5.474 6.294-.623 11.432-1.855 14.097-2.587-.486 1.77-1.159 4.507-1.748 7.926-.09.52.26 1.014.78 1.104.52.09 1.014-.26 1.104-.78.608-3.533 1.306-6.314 1.785-8.026.169-.604-.002-1.255-.445-1.7-.444-.443-1.096-.614-1.7-.445-1.792.501-4.936 1.292-8.91 1.934-4.847-6.247-8.159-11.77-9.72-14.541-.374-.666-1.054-1.064-1.818-1.064s-1.443.398-1.818 1.063zm1.818.848c.068 0 .12.03.153.09 1.515 2.692 4.653 7.933 9.22 13.925-1.044.142-2.09.262-2.986.351-4.1.406-7.645 2.843-9.485 6.52-2.055 4.109-1.712 9.253 1.86 13.354l-2.78 2.78c-.373.373-.373.978 0 1.351.373.374.978.374 1.351 0l2.78-2.78c2.803 2.442 6.153 3.432 9.446 3.036-1.573 1.183-3.386 2.041-5.37 2.528-2.74.674-5.638.674-8.378 0-10.548-2.592-14.781-15.313-7.863-23.75C24.266 22.029 28.31 15.34 30.19 12c.033-.06.084-.09.152-.09z"/>
                        </g>
                    </g>
                </g>
            </g>
        </g>
    </g>
</svg>
