<svg xmlns="http://www.w3.org/2000/svg" width="68" height="68" viewBox="0 0 68 68">
    <g fill="none" fill-rule="evenodd">
        <g>
            <g>
                <g>
                    <g>
                        <g transform="translate(-399 -1821) translate(0 1567) translate(140 255) translate(213) translate(47)">
                            <circle cx="33" cy="33" r="33" stroke="#FFF1BE"/>
                            <circle cx="33.5" cy="33.5" r="27.5" fill="#FFF1BE" fill-opacity=".8"/>
                            <path fill="#DB0812" fill-rule="nonzero" d="M55.32 32.894c-.024-.052-.052-.102-.082-.15.475-1.204.427-2.554-.13-3.72-.559-1.165-1.575-2.038-2.8-2.404-.457-2.893-2.246-5.392-4.816-6.73-2.571-1.336-5.616-1.35-8.2-.039-1.013-.8-2.312-1.126-3.577-.9-1.264.227-2.374.987-3.056 2.09-.415-.037-.834-.038-1.25-.002.053-2.463-.786-4.86-2.357-6.737 1.35-.41 2.52-1.282 3.309-2.467.163-.245.201-.555.101-.832-.1-.278-.326-.49-.606-.57l-1.226-.35c-1.07-.305-2.201-.31-3.273-.013l-2.16.598c.324-1.163.91-2.234 1.71-3.13.337-.375.31-.957-.061-1.299-.37-.341-.944-.314-1.281.062-.99 1.107-1.714 2.431-2.115 3.869l-1.536-1.652c-.763-.82-1.73-1.414-2.8-1.72l-1.226-.349c-.28-.08-.582-.018-.81.166-.229.184-.356.468-.342.763.064 1.428.613 2.79 1.555 3.853-3.435 1.155-5.984 4.104-6.662 7.708-.678 3.604.62 7.297 3.394 9.653 2.774 2.356 6.587 3.005 9.967 1.695.03.112.062.224.098.336.694 2.196 2.366 3.932 4.513 4.689-.007.052-.009.105-.007.158.089 2.112-.336 4.215-1.237 6.122-1.974-1.435-4.398-2.086-6.813-1.832-.36.04-.71-.143-.888-.463l-2.889-6.38c-.202-.447-.713-.653-1.162-.47l-4.208 1.71c-.451.184-.68.695-.518 1.16l2.3 6.617c.087.356-.041.73-.328.954-2.884 2.267-4.312 5.954-3.719 9.606l.02.12c.338 2.061 1.317 3.96 2.792 5.417l.123.12c2.822 2.774 6.99 3.606 10.638 2.125l2.562-1.043c3.646-1.485 6.09-5.007 6.238-8.99l.005-.127c.057-1.486-.218-2.965-.805-4.328l6.97 3.626c.892.463 1.985.106 2.442-.798 1.03-2.035 2.576-3.755 4.478-4.983 1.214.862 2.66 1.326 4.142 1.329 2.817.002 5.38-1.649 6.576-4.234 1.196-2.586.809-5.64-.993-7.834zM20.594 9.78l2.636 2.834c.23.247.575.345.899.256l3.705-1.025c.687-.19 1.41-.205 2.105-.042-.792.626-1.775.951-2.778.919l-.871-.026c-.327-.01-.633.16-.802.443-.17.283-.175.637-.016.926.495.89.728 1.904.67 2.923l-.015-.01c-.679-.467-1.24-1.088-1.643-1.814l-.54-.975c-.245-.443-.798-.6-1.235-.352l-.962.547c-.716.406-1.515.639-2.334.68h-.018c.475-.9 1.195-1.644 2.075-2.14.285-.163.461-.468.463-.8.001-.33-.174-.637-.457-.801l-.757-.439c-.873-.503-1.544-1.3-1.898-2.253.675.229 1.285.624 1.773 1.15zm-1.37 19.024c-3.384-.966-5.778-4.021-5.942-7.583-.164-3.561 1.938-6.83 5.218-8.112-.59.751-1.024 1.615-1.28 2.54l-.042.152c-.079.284-.018.59.164.821.181.232.461.36.753.346l1.404-.068c1.1-.054 2.174-.366 3.136-.912l.17-.097.097.173c.54.974 1.295 1.808 2.207 2.437l1.163.8c.242.166.547.204.82.103.274-.102.483-.33.562-.615l.043-.152c.257-.921.33-1.885.215-2.835 1.22 1.608 1.813 3.617 1.662 5.64-2.91 1.039-4.851 3.833-4.837 6.961-1.735.78-3.685.922-5.512.401zm11.404 14.357l-.807-.42c1.1-2.178 1.647-4.599 1.594-7.045.801.063 1.607-.008 2.385-.21l-.048.19c-.457 1.77-1.103 3.486-1.926 5.116l-1.198 2.369zm.07 6.887l-.005.128c-.098 2.635-1.43 5.063-3.587 6.537l.836-1.325c1.842-2.92 1.315-6.766-1.242-9.066l-.45-.406c-.241-.223-.583-.297-.893-.194-.311.104-.543.369-.607.694-.064.325.05.66.297.876l.45.405c1.89 1.7 2.278 4.542.917 6.7l-.782 1.24.062-2.665c.02-.818-.126-1.632-.427-2.391-.482-1.212-1.337-2.234-2.437-2.915-.428-.264-.986-.126-1.246.309-.26.434-.124 1 .304 1.263.765.474 1.36 1.185 1.695 2.028.21.528.31 1.094.297 1.663l-.088 3.805-2.657-2.689c-.398-.402-.71-.881-.919-1.41-.332-.844-.387-1.775-.156-2.654.087-.318 0-.66-.23-.894-.23-.235-.566-.326-.881-.24-.315.087-.56.338-.64.658-.332 1.263-.253 2.6.224 3.815.3.76.749 1.45 1.32 2.027l1.861 1.883-1.41-.348c-2.455-.606-4.11-2.933-3.902-5.486l.05-.608c.03-.33-.117-.65-.385-.839-.267-.19-.614-.218-.909-.076-.294.142-.49.434-.514.764l-.05.608c-.28 3.455 1.959 6.604 5.28 7.424l1.507.372c-2.563.447-5.183-.374-7.052-2.21l-.122-.12c-1.197-1.182-1.99-2.721-2.265-4.393l-.02-.122c-.484-2.985.683-6 3.042-7.854.876-.686 1.255-1.843.956-2.925-.006-.02-.011-.04-.019-.06l-2.022-5.82.476-.194 1.688 4.268c.95 2.42.728 5.15-.6 7.378-.17.281-.18.634-.025.924.156.29.453.473.779.48.325.006.63-.165.796-.449.863-1.446 1.356-3.089 1.433-4.777 1.206 1.167 2.681 2.009 4.291 2.45.313.086.648-.005.877-.237.23-.233.32-.572.236-.89-.085-.317-.33-.565-.643-.65-2.479-.68-4.5-2.499-5.46-4.913l-1.689-4.268.441-.18 2.542 5.616.025.05c.521.992 1.583 1.563 2.685 1.445 2.967-.313 5.865 1.048 7.548 3.546l.031.046c.969 1.428 1.455 3.135 1.388 4.866zm7.584-5.899l-1.198 2.37-1.614-.84 2.069-4.092c.15-.292.135-.645-.04-.923-.176-.278-.486-.439-.811-.422-.326.018-.617.21-.763.506l-2.07 4.091L32.243 44l1.198-2.369c.884-1.749 1.577-3.59 2.066-5.491l.36-1.398c.014-.056.023-.114.027-.172.216-.139.424-.29.624-.45.558.646 1.201 1.21 1.912 1.676l-.849 1.679c-.153.293-.139.646.038.926.176.279.486.44.813.423.326-.018.618-.213.763-.51l.849-1.679c.788.314 1.616.515 2.458.597-.011.25-.01.501.003.751l-1.03 1.26c-1.238 1.513-2.308 3.158-3.192 4.906zm1.222 3.628l-.806-.42 1.198-2.369c.824-1.628 1.82-3.161 2.973-4.57l.124-.152c.292.76.705 1.465 1.223 2.088-1.99 1.382-3.61 3.246-4.712 5.423zm15.084-7.658c-1.371 2.712-4.65 3.783-7.325 2.392-2.155-1.13-3.318-3.565-2.854-5.98.053-.27-.016-.55-.189-.763-.172-.213-.429-.336-.7-.336h-.02c-2.44.048-4.74-1.149-6.124-3.187-.156-.23-.406-.375-.68-.396-.274-.02-.542.085-.73.289-1.663 1.792-4.293 2.256-6.455 1.14-2.674-1.392-3.73-4.717-2.358-7.429 1.107-2.167 3.48-3.346 5.846-2.905.076.002.15.017.22.045.954.226 1.83.706 2.54 1.391.362.351.936.338 1.282-.029.346-.367.333-.949-.029-1.3-.693-.672-1.51-1.198-2.406-1.547.525-.519 1.234-.801 1.966-.783.732.018 1.427.334 1.926.878.292.318.762.386 1.13.163 2.148-1.305 4.808-1.394 7.037-.235 2.228 1.16 3.71 3.402 3.918 5.933.036.432.365.78.79.835.72.093 1.374.474 1.815 1.059.442.584.636 1.323.537 2.053-.199-.11-.417-.223-.667-.353-1.172-.61-2.486-.886-3.8-.795-.324.022-.61.218-.753.513-.143.295-.119.645.062.918.18.272.491.426.814.404 1.512-.102 2.998.439 4.101 1.491l.022.023c.16.156.312.321.452.496l.001.001c1.362 1.703 1.61 4.059.63 6.014z"/>
                            <path fill="#DB0812" fill-rule="nonzero" d="M16.91 19.173c.09-.316.01-.657-.208-.894-.22-.237-.543-.333-.848-.25-.306.084-.544.332-.624.65-.327 1.208-.305 2.49.065 3.684.094.312.342.547.648.616.306.07.624-.038.833-.281.21-.243.278-.585.18-.896-.264-.852-.28-1.767-.047-2.63zM20.226 24.947c-.569-.16-1.105-.415-1.588-.756-.303-.215-.698-.251-1.035-.095-.337.157-.565.482-.599.853-.033.372.133.733.437.948.675.477 1.426.835 2.221 1.059.36.108.75.013 1.02-.248.27-.262.38-.65.284-1.015-.094-.365-.378-.65-.741-.746z"/>
                        </g>
                    </g>
                </g>
            </g>
        </g>
    </g>
</svg>
