<svg xmlns="http://www.w3.org/2000/svg" width="45" height="45" viewBox="0 0 45 45">
    <g fill="none" fill-rule="evenodd">
        <g>
            <g>
                <g>
                    <g>
                        <path fill="#DB0812" d="M0 0h45v35c0 5.523-4.477 10-10 10H0V0z" transform="translate(-456 -3688) translate(0 2918) translate(140 305) translate(316 465)"/>
                        <path fill="#FCC517" fill-rule="nonzero" d="M24.466 23l6.23-6.23c.405-.406.405-1.06 0-1.466-.405-.405-1.06-.405-1.466 0L23 21.534l-6.23-6.23c-.406-.405-1.06-.405-1.466 0-.405.405-.405 1.06 0 1.466l6.23 6.23-6.23 6.23c-.405.406-.405 1.061 0 1.466.202.202.468.304.733.304.265 0 .53-.102.733-.304l6.23-6.23 6.23 6.23c.202.202.468.304.733.304.265 0 .53-.102.733-.304.405-.405.405-1.06 0-1.465L24.466 23z" transform="translate(-456 -3688) translate(0 2918) translate(140 305) translate(316 465)"/>
                    </g>
                </g>
            </g>
        </g>
    </g>
</svg>
